<svg xmlns="http://www.w3.org/2000/svg" xmlns:xlink="http://www.w3.org/1999/xlink" width="1920" zoomAndPan="magnify" viewBox="0 0 1440 374.999991" height="500" preserveAspectRatio="xMidYMid meet" version="1.0"><defs><g/><clipPath id="1addefc53b"><path d="M 0 165.890625 L 876 165.890625 L 876 282.1875 L 0 282.1875 Z M 0 165.890625 " clip-rule="nonzero"/></clipPath><clipPath id="972738cfae"><path d="M -9.292969 165.890625 L 817.578125 165.890625 C 849.695312 165.890625 875.730469 191.921875 875.730469 224.039062 C 875.730469 256.152344 849.695312 282.1875 817.578125 282.1875 L -9.292969 282.1875 C -41.410156 282.1875 -67.441406 256.152344 -67.441406 224.039062 C -67.441406 191.921875 -41.410156 165.890625 -9.292969 165.890625 Z M -9.292969 165.890625 " clip-rule="nonzero"/></clipPath><clipPath id="6a92da5770"><path d="M 953.382812 0 L 1440 0 L 1440 375 L 953.382812 375 Z M 953.382812 0 " clip-rule="nonzero"/></clipPath><clipPath id="2599afd744"><path d="M 0 349 L 109 349 L 109 375 L 0 375 Z M 0 349 " clip-rule="nonzero"/></clipPath><clipPath id="b2d76e9af6"><path d="M -52.023438 396.761719 L 19.84375 307.304688 L 135.027344 399.839844 L 63.160156 489.296875 Z M -52.023438 396.761719 " clip-rule="nonzero"/></clipPath><clipPath id="0369e6bb19"><path d="M -52.023438 396.761719 L 19.84375 307.304688 L 135.027344 399.839844 L 63.160156 489.296875 Z M -52.023438 396.761719 " clip-rule="nonzero"/></clipPath><clipPath id="c02ad291ba"><path d="M 86 348 L 226 348 L 226 375 L 86 375 Z M 86 348 " clip-rule="nonzero"/></clipPath><clipPath id="6789edef84"><path d="M 65.171875 396.433594 L 137.039062 306.976562 L 252.222656 399.515625 L 180.351562 488.972656 Z M 65.171875 396.433594 " clip-rule="nonzero"/></clipPath><clipPath id="7226957824"><path d="M 65.171875 396.433594 L 137.039062 306.976562 L 252.222656 399.515625 L 180.351562 488.972656 Z M 65.171875 396.433594 " clip-rule="nonzero"/></clipPath><clipPath id="f38bd9afbf"><path d="M 203 348 L 343 348 L 343 375 L 203 375 Z M 203 348 " clip-rule="nonzero"/></clipPath><clipPath id="2d09e9e463"><path d="M 182.363281 396.109375 L 254.234375 306.652344 L 369.414062 399.1875 L 297.546875 488.644531 Z M 182.363281 396.109375 " clip-rule="nonzero"/></clipPath><clipPath id="0d90d7a140"><path d="M 182.363281 396.109375 L 254.234375 306.652344 L 369.414062 399.1875 L 297.546875 488.644531 Z M 182.363281 396.109375 " clip-rule="nonzero"/></clipPath><clipPath id="e1f8001fee"><path d="M 320 348 L 460 348 L 460 375 L 320 375 Z M 320 348 " clip-rule="nonzero"/></clipPath><clipPath id="92c06fd7ec"><path d="M 299.558594 395.78125 L 371.425781 306.328125 L 486.609375 398.863281 L 414.742188 488.320312 Z M 299.558594 395.78125 " clip-rule="nonzero"/></clipPath><clipPath id="a74a9482f6"><path d="M 299.558594 395.78125 L 371.425781 306.328125 L 486.609375 398.863281 L 414.742188 488.320312 Z M 299.558594 395.78125 " clip-rule="nonzero"/></clipPath><clipPath id="3e1dae14fb"><path d="M 437 347 L 578 347 L 578 375 L 437 375 Z M 437 347 " clip-rule="nonzero"/></clipPath><clipPath id="2443e7fbe3"><path d="M 416.753906 395.457031 L 488.621094 306 L 603.804688 398.535156 L 531.933594 487.992188 Z M 416.753906 395.457031 " clip-rule="nonzero"/></clipPath><clipPath id="f5d561efa2"><path d="M 416.753906 395.457031 L 488.621094 306 L 603.804688 398.535156 L 531.933594 487.992188 Z M 416.753906 395.457031 " clip-rule="nonzero"/></clipPath><clipPath id="70d7517080"><path d="M 555 347 L 695 347 L 695 375 L 555 375 Z M 555 347 " clip-rule="nonzero"/></clipPath><clipPath id="0acbc12409"><path d="M 533.945312 395.132812 L 605.816406 305.675781 L 720.996094 398.210938 L 649.128906 487.667969 Z M 533.945312 395.132812 " clip-rule="nonzero"/></clipPath><clipPath id="4ac307eaca"><path d="M 533.945312 395.132812 L 605.816406 305.675781 L 720.996094 398.210938 L 649.128906 487.667969 Z M 533.945312 395.132812 " clip-rule="nonzero"/></clipPath><clipPath id="21c6e27cdb"><path d="M 672 347 L 812 347 L 812 375 L 672 375 Z M 672 347 " clip-rule="nonzero"/></clipPath><clipPath id="a780e1590f"><path d="M 651.140625 394.804688 L 723.007812 305.347656 L 838.191406 397.886719 L 766.324219 487.34375 Z M 651.140625 394.804688 " clip-rule="nonzero"/></clipPath><clipPath id="e97aceee36"><path d="M 651.140625 394.804688 L 723.007812 305.347656 L 838.191406 397.886719 L 766.324219 487.34375 Z M 651.140625 394.804688 " clip-rule="nonzero"/></clipPath><clipPath id="6948986229"><path d="M 789 346 L 929 346 L 929 375 L 789 375 Z M 789 346 " clip-rule="nonzero"/></clipPath><clipPath id="26934c92c5"><path d="M 768.335938 394.480469 L 840.203125 305.023438 L 955.386719 397.558594 L 883.515625 487.015625 Z M 768.335938 394.480469 " clip-rule="nonzero"/></clipPath><clipPath id="49cd3091ba"><path d="M 768.335938 394.480469 L 840.203125 305.023438 L 955.386719 397.558594 L 883.515625 487.015625 Z M 768.335938 394.480469 " clip-rule="nonzero"/></clipPath><clipPath id="3cbab2d43f"><path d="M 1302 33 L 1372 33 L 1372 114 L 1302 114 Z M 1302 33 " clip-rule="nonzero"/></clipPath><clipPath id="657fdf78cd"><path d="M 1313.679688 26.511719 L 1380.328125 44.378906 L 1360.714844 117.542969 L 1294.066406 99.679688 Z M 1313.679688 26.511719 " clip-rule="nonzero"/></clipPath><clipPath id="058cb8b414"><path d="M 1313.679688 26.511719 L 1380.328125 44.378906 L 1360.714844 117.542969 L 1294.066406 99.679688 Z M 1313.679688 26.511719 " clip-rule="nonzero"/></clipPath></defs><rect x="-144" width="1728" fill="#ffffff" y="-37.499999" height="449.999989" fill-opacity="1"/><rect x="-144" width="1728" fill="#c47032" y="-37.499999" height="449.999989" fill-opacity="1"/><g clip-path="url(#1addefc53b)"><g clip-path="url(#972738cfae)"><path fill="#fff8ef" d="M -67.441406 165.890625 L 875.65625 165.890625 L 875.65625 282.1875 L -67.441406 282.1875 Z M -67.441406 165.890625 " fill-opacity="1" fill-rule="nonzero"/></g></g><g clip-path="url(#6a92da5770)"><path fill="#fff8ef" d="M 1156.792969 257.609375 C 1166.675781 257.609375 1174.695312 249.585938 1174.695312 239.703125 C 1174.695312 229.816406 1166.675781 221.792969 1156.792969 221.792969 C 1156.792969 221.792969 1092.707031 221.792969 1092.707031 221.792969 C 1045.1875 221.792969 1012.132812 187.40625 1012.132812 145.046875 C 1012.132812 102.691406 1045.1875 68.300781 1092.707031 68.300781 L 1247.339844 68.300781 C 1253.605469 68.300781 1258.699219 63.214844 1258.699219 56.949219 C 1258.699219 50.679688 1253.605469 45.59375 1247.339844 45.59375 C 1247.339844 45.59375 1217.457031 45.59375 1217.457031 45.59375 C 1183.976562 45.59375 1151.269531 11.203125 1151.269531 -31.152344 C 1151.269531 -73.511719 1183.976562 -107.898438 1217.457031 -107.898438 L 1515.121094 -107.898438 L 1515.121094 411.101562 L 1034.457031 411.101562 C 980.390625 411.101562 953.054688 376.710938 953.054688 334.355469 C 953.054688 292 980.390625 257.609375 1034.457031 257.609375 Z M 1156.792969 257.609375 " fill-opacity="1" fill-rule="evenodd"/></g><g clip-path="url(#2599afd744)"><g clip-path="url(#b2d76e9af6)"><g clip-path="url(#0369e6bb19)"><path fill="#fff8ef" d="M -26.175781 411.863281 C -18.574219 433.976562 -4.054688 423.105469 12.6875 430.769531 C 30.210938 438.691406 35.800781 462.390625 56.679688 464.140625 C 106.917969 468.429688 121.066406 404.683594 96.460938 371.863281 C 91.511719 365.300781 84.695312 356.625 75.808594 355.269531 C 64.132812 353.402344 58.230469 365.652344 52.175781 365.222656 C 39.644531 364.265625 37.945312 353.050781 24.382812 349.542969 C 15.246094 347.125 14.082031 358.996094 8.113281 359.988281 C -0.945312 361.453125 -6.519531 352.296875 -16.558594 356.667969 C -36.003906 364.933594 -31.851562 395.480469 -26.175781 411.863281 Z M -26.175781 411.863281 " fill-opacity="1" fill-rule="nonzero"/></g></g></g><g fill="#fff8ef" fill-opacity="1"><g transform="translate(42.732677, 319.184796)"><g><path d="M 18.734375 -12.835938 C 18.734375 -12.835938 23.246094 -13.703125 23.246094 -17.867188 C 23.246094 -21.511719 20.121094 -24.632812 12.316406 -24.632812 C 6.9375 -24.632812 2.082031 -24.285156 2.082031 -24.285156 L 2.082031 0 C 2.082031 0 6.9375 0.347656 12.488281 0.347656 C 21.164062 0.347656 24.285156 -2.777344 24.285156 -6.589844 C 24.285156 -11.796875 18.734375 -12.664062 18.734375 -12.664062 Z M 11.101562 -18.386719 L 12.316406 -18.386719 C 13.53125 -18.386719 14.222656 -17.695312 14.222656 -16.828125 C 14.222656 -15.960938 13.53125 -15.265625 12.316406 -15.265625 L 11.101562 -15.265625 Z M 12.488281 -5.898438 C 11.796875 -5.898438 11.101562 -5.898438 11.101562 -5.898438 L 11.101562 -9.367188 L 12.488281 -9.367188 C 13.878906 -9.367188 14.570312 -8.671875 14.570312 -7.632812 C 14.570312 -6.589844 13.878906 -5.898438 12.488281 -5.898438 Z M 12.488281 -5.898438 "/></g></g></g><g fill="#fff8ef" fill-opacity="1"><g transform="translate(68.047418, 319.184796)"><g><path d="M 7.980469 0.519531 C 11.101562 0.519531 12.488281 -2.082031 12.488281 -2.082031 L 13.183594 0 L 21.164062 0 L 21.164062 -18.386719 L 12.835938 -18.386719 L 12.835938 -8.671875 C 12.835938 -7.285156 12.144531 -6.589844 11.449219 -6.589844 C 10.753906 -6.589844 10.0625 -7.285156 10.0625 -8.671875 L 10.0625 -18.386719 L 1.734375 -18.386719 L 1.734375 -8.671875 C 1.734375 -2.253906 4.511719 0.519531 7.980469 0.519531 Z M 7.980469 0.519531 "/></g></g></g><g fill="#fff8ef" fill-opacity="1"><g transform="translate(90.934723, 319.184796)"><g><path d="M 5.550781 1.386719 C 5.238281 2.253906 4.511719 2.949219 3.644531 2.949219 C 2.949219 2.949219 2.429688 2.601562 2.429688 2.601562 L 0.519531 8.671875 C 0.519531 8.671875 2.601562 10.0625 5.03125 10.0625 C 9.367188 10.0625 11.796875 7.632812 13.878906 1.386719 L 20.46875 -18.386719 L 11.796875 -18.386719 L 10.234375 -8.671875 L 8.671875 -18.386719 L 0 -18.386719 L 6.070312 0 Z M 5.550781 1.386719 "/></g></g></g><g fill="#fff8ef" fill-opacity="1"><g transform="translate(111.394572, 319.184796)"><g/></g></g><g fill="#fff8ef" fill-opacity="1"><g transform="translate(118.330116, 319.184796)"><g><path d="M 14.917969 -18.90625 C 11.796875 -18.90625 10.40625 -16.304688 10.40625 -16.304688 L 9.714844 -18.386719 L 1.734375 -18.386719 L 1.734375 0 L 10.0625 0 L 10.0625 -9.714844 C 10.0625 -11.101562 10.753906 -11.796875 11.449219 -11.796875 C 12.144531 -11.796875 12.835938 -11.101562 12.835938 -9.714844 L 12.835938 0 L 21.164062 0 L 21.164062 -9.714844 C 21.164062 -16.132812 18.386719 -18.90625 14.917969 -18.90625 Z M 14.917969 -18.90625 "/></g></g></g><g fill="#fff8ef" fill-opacity="1"><g transform="translate(140.870639, 319.184796)"><g><path d="M 1.039062 -9.195312 C 1.039062 -3.816406 5.378906 0.519531 11.621094 0.519531 C 17.867188 0.519531 22.203125 -3.816406 22.203125 -9.195312 C 22.203125 -14.570312 17.867188 -18.90625 11.621094 -18.90625 C 5.378906 -18.90625 1.039062 -14.570312 1.039062 -9.195312 Z M 13.878906 -9.195312 C 13.878906 -7.632812 12.835938 -6.589844 11.621094 -6.589844 C 10.40625 -6.589844 9.367188 -7.632812 9.367188 -9.195312 C 9.367188 -10.753906 10.40625 -11.796875 11.621094 -11.796875 C 12.835938 -11.796875 13.878906 -10.753906 13.878906 -9.195312 Z M 13.878906 -9.195312 "/></g></g></g><g fill="#fff8ef" fill-opacity="1"><g transform="translate(164.104704, 319.184796)"><g><path d="M 17.867188 -18.386719 L 11.277344 -18.386719 L 9.714844 -9.367188 L 8.671875 -18.386719 L 0 -18.386719 L 4.164062 0 L 12.488281 0 L 14.570312 -9.367188 L 16.652344 0 L 24.980469 0 L 29.144531 -18.386719 L 20.46875 -18.386719 L 19.429688 -9.367188 Z M 17.867188 -18.386719 "/></g></g></g><g fill="#fff8ef" fill-opacity="1"><g transform="translate(193.233988, 319.184796)"><g/></g></g><g fill="#fff8ef" fill-opacity="1"><g transform="translate(200.169532, 319.184796)"><g><path d="M 1.039062 -9.195312 C 1.039062 -3.816406 5.378906 0.519531 11.621094 0.519531 C 17.867188 0.519531 22.203125 -3.816406 22.203125 -9.195312 C 22.203125 -14.570312 17.867188 -18.90625 11.621094 -18.90625 C 5.378906 -18.90625 1.039062 -14.570312 1.039062 -9.195312 Z M 13.878906 -9.195312 C 13.878906 -7.632812 12.835938 -6.589844 11.621094 -6.589844 C 10.40625 -6.589844 9.367188 -7.632812 9.367188 -9.195312 C 9.367188 -10.753906 10.40625 -11.796875 11.621094 -11.796875 C 12.835938 -11.796875 13.878906 -10.753906 13.878906 -9.195312 Z M 13.878906 -9.195312 "/></g></g></g><g fill="#fff8ef" fill-opacity="1"><g transform="translate(223.403598, 319.184796)"><g><path d="M 14.917969 -18.90625 C 11.796875 -18.90625 10.40625 -16.304688 10.40625 -16.304688 L 9.714844 -18.386719 L 1.734375 -18.386719 L 1.734375 0 L 10.0625 0 L 10.0625 -9.714844 C 10.0625 -11.101562 10.753906 -11.796875 11.449219 -11.796875 C 12.144531 -11.796875 12.835938 -11.101562 12.835938 -9.714844 L 12.835938 0 L 21.164062 0 L 21.164062 -9.714844 C 21.164062 -16.132812 18.386719 -18.90625 14.917969 -18.90625 Z M 14.917969 -18.90625 "/></g></g></g><g fill="#fff8ef" fill-opacity="1"><g transform="translate(245.944121, 319.184796)"><g/></g></g><g fill="#fff8ef" fill-opacity="1"><g transform="translate(252.879665, 319.184796)"><g><path d="M 17.867188 -18.386719 L 11.277344 -18.386719 L 9.714844 -9.367188 L 8.671875 -18.386719 L 0 -18.386719 L 4.164062 0 L 12.488281 0 L 14.570312 -9.367188 L 16.652344 0 L 24.980469 0 L 29.144531 -18.386719 L 20.46875 -18.386719 L 19.429688 -9.367188 Z M 17.867188 -18.386719 "/></g></g></g><g fill="#fff8ef" fill-opacity="1"><g transform="translate(282.008949, 319.184796)"><g><path d="M 17.867188 -18.386719 L 11.277344 -18.386719 L 9.714844 -9.367188 L 8.671875 -18.386719 L 0 -18.386719 L 4.164062 0 L 12.488281 0 L 14.570312 -9.367188 L 16.652344 0 L 24.980469 0 L 29.144531 -18.386719 L 20.46875 -18.386719 L 19.429688 -9.367188 Z M 17.867188 -18.386719 "/></g></g></g><g fill="#fff8ef" fill-opacity="1"><g transform="translate(311.138233, 319.184796)"><g><path d="M 17.867188 -18.386719 L 11.277344 -18.386719 L 9.714844 -9.367188 L 8.671875 -18.386719 L 0 -18.386719 L 4.164062 0 L 12.488281 0 L 14.570312 -9.367188 L 16.652344 0 L 24.980469 0 L 29.144531 -18.386719 L 20.46875 -18.386719 L 19.429688 -9.367188 Z M 17.867188 -18.386719 "/></g></g></g><g fill="#fff8ef" fill-opacity="1"><g transform="translate(340.267517, 319.184796)"><g><path d="M 1.386719 -6.9375 L 1.386719 0 L 8.671875 0 L 8.671875 -6.9375 Z M 1.386719 -6.9375 "/></g></g></g><g fill="#fff8ef" fill-opacity="1"><g transform="translate(350.324061, 319.184796)"><g><path d="M 10.40625 -16.304688 L 9.714844 -18.386719 L 1.734375 -18.386719 L 1.734375 0 L 10.0625 0 L 10.0625 -7.632812 C 10.0625 -10.0625 11.449219 -11.449219 13.183594 -11.449219 C 14.222656 -11.449219 15.613281 -10.753906 15.613281 -10.753906 L 17 -18.386719 C 17 -18.386719 15.960938 -18.90625 14.570312 -18.90625 C 11.796875 -18.90625 10.40625 -16.304688 10.40625 -16.304688 Z M 10.40625 -16.304688 "/></g></g></g><g fill="#fff8ef" fill-opacity="1"><g transform="translate(366.969366, 319.184796)"><g><path d="M 10.753906 -18.90625 C 5.378906 -18.90625 1.039062 -14.570312 1.039062 -9.195312 C 1.039062 -3.816406 5.378906 0.519531 11.277344 0.519531 C 15.960938 0.519531 18.5625 -2.253906 18.5625 -2.253906 L 15.613281 -6.9375 C 15.613281 -6.9375 14.222656 -5.550781 12.488281 -5.550781 C 9.714844 -5.550781 9.367188 -7.460938 9.367188 -7.460938 L 20.46875 -7.460938 C 20.46875 -7.597656 20.46875 -9.054688 20.46875 -9.195312 C 20.46875 -14.570312 16.132812 -18.90625 10.753906 -18.90625 Z M 9.195312 -10.753906 C 9.195312 -12.144531 9.886719 -12.835938 10.753906 -12.835938 C 11.621094 -12.835938 12.316406 -12.144531 12.316406 -10.753906 Z M 9.195312 -10.753906 "/></g></g></g><g fill="#fff8ef" fill-opacity="1"><g transform="translate(388.12278, 319.184796)"><g><path d="M 9.886719 -18.90625 C 5.203125 -18.90625 2.601562 -16.132812 2.601562 -16.132812 L 5.550781 -11.449219 C 5.550781 -11.449219 6.9375 -12.835938 8.671875 -12.835938 C 11.449219 -12.835938 11.796875 -10.929688 11.796875 -10.929688 L 9.019531 -10.929688 C 3.121094 -10.929688 0.695312 -8.5 0.695312 -5.203125 C 0.695312 -1.90625 3.121094 0.519531 6.9375 0.519531 C 10.0625 0.519531 11.449219 -2.082031 11.449219 -2.082031 L 12.144531 0 L 20.121094 0 C 20.121094 -2.707031 20.121094 -6.210938 20.121094 -9.195312 C 20.121094 -14.570312 15.785156 -18.90625 9.886719 -18.90625 Z M 10.0625 -5.03125 C 9.539062 -5.03125 9.019531 -5.550781 9.019531 -6.070312 C 9.019531 -7.113281 9.886719 -7.980469 11.796875 -7.980469 C 11.796875 -5.898438 10.929688 -5.03125 10.0625 -5.03125 Z M 10.0625 -5.03125 "/></g></g></g><g fill="#fff8ef" fill-opacity="1"><g transform="translate(409.622977, 319.184796)"><g><path d="M 1.734375 0 L 10.0625 0 L 10.0625 -25.671875 L 1.734375 -25.671875 Z M 1.734375 0 "/></g></g></g><g fill="#fff8ef" fill-opacity="1"><g transform="translate(421.413413, 319.184796)"><g><path d="M 1.734375 0 L 10.0625 0 L 10.0625 -25.671875 L 1.734375 -25.671875 Z M 1.734375 0 "/></g></g></g><g fill="#fff8ef" fill-opacity="1"><g transform="translate(433.203871, 319.184796)"><g><path d="M 5.550781 1.386719 C 5.238281 2.253906 4.511719 2.949219 3.644531 2.949219 C 2.949219 2.949219 2.429688 2.601562 2.429688 2.601562 L 0.519531 8.671875 C 0.519531 8.671875 2.601562 10.0625 5.03125 10.0625 C 9.367188 10.0625 11.796875 7.632812 13.878906 1.386719 L 20.46875 -18.386719 L 11.796875 -18.386719 L 10.234375 -8.671875 L 8.671875 -18.386719 L 0 -18.386719 L 6.070312 0 Z M 5.550781 1.386719 "/></g></g></g><g fill="#fff8ef" fill-opacity="1"><g transform="translate(453.66372, 319.184796)"><g><path d="M 13.183594 -0.695312 C 13.183594 1.214844 11.796875 2.601562 9.714844 2.601562 C 7.980469 2.601562 6.589844 1.214844 6.589844 1.214844 L 3.121094 6.765625 C 3.121094 6.765625 5.898438 9.714844 10.929688 9.714844 C 16.828125 9.714844 21.511719 5.03125 21.511719 -0.695312 L 21.511719 -18.386719 L 13.878906 -18.386719 L 13.183594 -16.304688 C 13.183594 -16.304688 11.796875 -18.90625 8.328125 -18.90625 C 4.511719 -18.90625 1.039062 -15.4375 1.039062 -9.539062 C 1.039062 -3.644531 4.511719 -0.171875 8.328125 -0.171875 C 11.796875 -0.171875 13.183594 -2.777344 13.183594 -2.777344 Z M 9.714844 -9.539062 C 9.714844 -10.929688 10.582031 -11.796875 11.621094 -11.796875 C 12.664062 -11.796875 13.53125 -10.929688 13.53125 -9.539062 C 13.53125 -8.152344 12.664062 -7.285156 11.621094 -7.285156 C 10.582031 -7.285156 9.714844 -8.152344 9.714844 -9.539062 Z M 9.714844 -9.539062 "/></g></g></g><g fill="#fff8ef" fill-opacity="1"><g transform="translate(476.897786, 319.184796)"><g><path d="M 10.40625 -16.304688 L 9.714844 -18.386719 L 1.734375 -18.386719 L 1.734375 0 L 10.0625 0 L 10.0625 -7.632812 C 10.0625 -10.0625 11.449219 -11.449219 13.183594 -11.449219 C 14.222656 -11.449219 15.613281 -10.753906 15.613281 -10.753906 L 17 -18.386719 C 17 -18.386719 15.960938 -18.90625 14.570312 -18.90625 C 11.796875 -18.90625 10.40625 -16.304688 10.40625 -16.304688 Z M 10.40625 -16.304688 "/></g></g></g><g fill="#fff8ef" fill-opacity="1"><g transform="translate(493.543091, 319.184796)"><g><path d="M 10.753906 -18.90625 C 5.378906 -18.90625 1.039062 -14.570312 1.039062 -9.195312 C 1.039062 -3.816406 5.378906 0.519531 11.277344 0.519531 C 15.960938 0.519531 18.5625 -2.253906 18.5625 -2.253906 L 15.613281 -6.9375 C 15.613281 -6.9375 14.222656 -5.550781 12.488281 -5.550781 C 9.714844 -5.550781 9.367188 -7.460938 9.367188 -7.460938 L 20.46875 -7.460938 C 20.46875 -7.597656 20.46875 -9.054688 20.46875 -9.195312 C 20.46875 -14.570312 16.132812 -18.90625 10.753906 -18.90625 Z M 9.195312 -10.753906 C 9.195312 -12.144531 9.886719 -12.835938 10.753906 -12.835938 C 11.621094 -12.835938 12.316406 -12.144531 12.316406 -10.753906 Z M 9.195312 -10.753906 "/></g></g></g><g fill="#fff8ef" fill-opacity="1"><g transform="translate(514.696505, 319.184796)"><g><path d="M 9.886719 -18.90625 C 5.203125 -18.90625 2.601562 -16.132812 2.601562 -16.132812 L 5.550781 -11.449219 C 5.550781 -11.449219 6.9375 -12.835938 8.671875 -12.835938 C 11.449219 -12.835938 11.796875 -10.929688 11.796875 -10.929688 L 9.019531 -10.929688 C 3.121094 -10.929688 0.695312 -8.5 0.695312 -5.203125 C 0.695312 -1.90625 3.121094 0.519531 6.9375 0.519531 C 10.0625 0.519531 11.449219 -2.082031 11.449219 -2.082031 L 12.144531 0 L 20.121094 0 C 20.121094 -2.707031 20.121094 -6.210938 20.121094 -9.195312 C 20.121094 -14.570312 15.785156 -18.90625 9.886719 -18.90625 Z M 10.0625 -5.03125 C 9.539062 -5.03125 9.019531 -5.550781 9.019531 -6.070312 C 9.019531 -7.113281 9.886719 -7.980469 11.796875 -7.980469 C 11.796875 -5.898438 10.929688 -5.03125 10.0625 -5.03125 Z M 10.0625 -5.03125 "/></g></g></g><g fill="#fff8ef" fill-opacity="1"><g transform="translate(536.196725, 319.184796)"><g><path d="M 3.121094 -11.449219 L 3.121094 -8.5 C 3.121094 -2.429688 6.246094 0.695312 11.449219 0.695312 C 13.183594 0.695312 14.570312 0.347656 14.570312 0.347656 L 14.570312 -6.589844 C 14.570312 -6.589844 13.878906 -6.417969 13.183594 -6.417969 C 12.144531 -6.417969 11.449219 -7.113281 11.449219 -8.5 L 11.449219 -11.449219 L 14.570312 -11.449219 L 14.570312 -18.386719 L 11.449219 -18.386719 L 11.449219 -24.285156 L 3.121094 -24.285156 L 3.121094 -18.386719 L 0.695312 -18.386719 L 0.695312 -11.449219 Z M 3.121094 -11.449219 "/></g></g></g><g fill="#fff8ef" fill-opacity="1"><g transform="translate(552.49527, 319.184796)"><g><path d="M 17.171875 -5.550781 C 17.171875 -11.101562 10.40625 -11.449219 10.40625 -12.488281 C 10.40625 -12.835938 10.753906 -13.183594 11.277344 -13.183594 C 13.183594 -13.183594 14.570312 -11.796875 14.570312 -11.796875 L 17.171875 -15.960938 C 17.171875 -15.960938 14.222656 -18.90625 9.539062 -18.90625 C 4.164062 -18.90625 1.386719 -16.132812 1.386719 -12.835938 C 1.386719 -7.285156 8.152344 -6.9375 8.152344 -5.898438 C 8.152344 -5.550781 7.804688 -5.203125 7.285156 -5.203125 C 4.683594 -5.203125 2.949219 -6.9375 2.949219 -6.9375 L 0.347656 -2.777344 C 0.347656 -2.777344 3.296875 0.519531 9.019531 0.519531 C 14.398438 0.519531 17.171875 -2.253906 17.171875 -5.550781 Z M 17.171875 -5.550781 "/></g></g></g><g fill="#fff8ef" fill-opacity="1"><g transform="translate(570.354281, 319.184796)"><g><path d="M 1.734375 -18.386719 L 1.734375 0 L 10.0625 0 L 10.0625 -18.386719 Z M 1.734375 -20.46875 L 10.0625 -20.46875 L 10.0625 -27.0625 L 1.734375 -27.0625 Z M 1.734375 -20.46875 "/></g></g></g><g fill="#fff8ef" fill-opacity="1"><g transform="translate(582.144716, 319.184796)"><g><path d="M 3.121094 -11.449219 L 3.121094 -8.5 C 3.121094 -2.429688 6.246094 0.695312 11.449219 0.695312 C 13.183594 0.695312 14.570312 0.347656 14.570312 0.347656 L 14.570312 -6.589844 C 14.570312 -6.589844 13.878906 -6.417969 13.183594 -6.417969 C 12.144531 -6.417969 11.449219 -7.113281 11.449219 -8.5 L 11.449219 -11.449219 L 14.570312 -11.449219 L 14.570312 -18.386719 L 11.449219 -18.386719 L 11.449219 -24.285156 L 3.121094 -24.285156 L 3.121094 -18.386719 L 0.695312 -18.386719 L 0.695312 -11.449219 Z M 3.121094 -11.449219 "/></g></g></g><g fill="#fff8ef" fill-opacity="1"><g transform="translate(598.443216, 319.184796)"><g><path d="M 10.753906 -18.90625 C 5.378906 -18.90625 1.039062 -14.570312 1.039062 -9.195312 C 1.039062 -3.816406 5.378906 0.519531 11.277344 0.519531 C 15.960938 0.519531 18.5625 -2.253906 18.5625 -2.253906 L 15.613281 -6.9375 C 15.613281 -6.9375 14.222656 -5.550781 12.488281 -5.550781 C 9.714844 -5.550781 9.367188 -7.460938 9.367188 -7.460938 L 20.46875 -7.460938 C 20.46875 -7.597656 20.46875 -9.054688 20.46875 -9.195312 C 20.46875 -14.570312 16.132812 -18.90625 10.753906 -18.90625 Z M 9.195312 -10.753906 C 9.195312 -12.144531 9.886719 -12.835938 10.753906 -12.835938 C 11.621094 -12.835938 12.316406 -12.144531 12.316406 -10.753906 Z M 9.195312 -10.753906 "/></g></g></g><g fill="#fff8ef" fill-opacity="1"><g transform="translate(619.59663, 319.184796)"><g><path d="M 1.386719 -6.9375 L 1.386719 0 L 8.671875 0 L 8.671875 -6.9375 Z M 1.386719 -6.9375 "/></g></g></g><g fill="#fff8ef" fill-opacity="1"><g transform="translate(629.653174, 319.184796)"><g><path d="M 9.714844 -9.195312 C 9.714844 -10.753906 10.753906 -11.796875 12.488281 -11.796875 C 14.222656 -11.796875 15.613281 -10.40625 15.613281 -10.40625 L 19.082031 -15.960938 C 19.082031 -15.960938 16.304688 -18.90625 11.277344 -18.90625 C 5.378906 -18.90625 1.039062 -14.570312 1.039062 -9.195312 C 1.039062 -3.816406 5.378906 0.519531 11.277344 0.519531 C 16.304688 0.519531 19.082031 -2.429688 19.082031 -2.429688 L 15.613281 -7.980469 C 15.613281 -7.980469 14.222656 -6.589844 12.488281 -6.589844 C 10.753906 -6.589844 9.714844 -7.632812 9.714844 -9.195312 Z M 9.714844 -9.195312 "/></g></g></g><g fill="#fff8ef" fill-opacity="1"><g transform="translate(649.072697, 319.184796)"><g><path d="M 1.039062 -9.195312 C 1.039062 -3.816406 5.378906 0.519531 11.621094 0.519531 C 17.867188 0.519531 22.203125 -3.816406 22.203125 -9.195312 C 22.203125 -14.570312 17.867188 -18.90625 11.621094 -18.90625 C 5.378906 -18.90625 1.039062 -14.570312 1.039062 -9.195312 Z M 13.878906 -9.195312 C 13.878906 -7.632812 12.835938 -6.589844 11.621094 -6.589844 C 10.40625 -6.589844 9.367188 -7.632812 9.367188 -9.195312 C 9.367188 -10.753906 10.40625 -11.796875 11.621094 -11.796875 C 12.835938 -11.796875 13.878906 -10.753906 13.878906 -9.195312 Z M 13.878906 -9.195312 "/></g></g></g><g fill="#fff8ef" fill-opacity="1"><g transform="translate(672.306763, 319.184796)"><g><path d="M 26.019531 -18.90625 C 22.550781 -18.90625 20.46875 -15.613281 20.46875 -15.613281 C 20.46875 -15.613281 18.734375 -18.90625 15.265625 -18.90625 C 11.796875 -18.90625 10.40625 -16.304688 10.40625 -16.304688 L 9.714844 -18.386719 L 1.734375 -18.386719 L 1.734375 0 L 10.0625 0 L 10.0625 -9.714844 C 10.0625 -11.101562 10.753906 -11.796875 11.449219 -11.796875 C 12.144531 -11.796875 12.835938 -11.101562 12.835938 -9.714844 L 12.835938 0 L 21.164062 0 L 21.164062 -9.714844 C 21.164062 -11.101562 21.855469 -11.796875 22.550781 -11.796875 C 23.246094 -11.796875 23.9375 -11.101562 23.9375 -9.714844 L 23.9375 0 L 32.265625 0 L 32.265625 -9.714844 C 32.265625 -16.132812 29.488281 -18.90625 26.019531 -18.90625 Z M 26.019531 -18.90625 "/></g></g></g><g clip-path="url(#c02ad291ba)"><g clip-path="url(#6789edef84)"><g clip-path="url(#7226957824)"><path fill="#fff8ef" d="M 91.019531 411.535156 C 98.617188 433.648438 113.136719 422.78125 129.882812 430.445312 C 147.40625 438.367188 152.992188 462.066406 173.871094 463.816406 C 224.113281 468.101562 238.261719 404.359375 213.652344 371.539062 C 208.707031 364.976562 201.886719 356.296875 193 354.945312 C 181.328125 353.078125 175.425781 365.328125 169.367188 364.894531 C 156.839844 363.941406 155.136719 352.722656 141.578125 349.21875 C 132.4375 346.800781 131.273438 358.671875 125.304688 359.664062 C 116.25 361.128906 110.675781 351.972656 100.636719 356.34375 C 81.191406 364.609375 85.339844 395.15625 91.019531 411.535156 Z M 91.019531 411.535156 " fill-opacity="1" fill-rule="nonzero"/></g></g></g><g clip-path="url(#f38bd9afbf)"><g clip-path="url(#2d09e9e463)"><g clip-path="url(#0d90d7a140)"><path fill="#fff8ef" d="M 208.210938 411.210938 C 215.8125 433.324219 230.332031 422.453125 247.074219 430.121094 C 264.597656 438.042969 270.1875 461.738281 291.066406 463.492188 C 341.308594 467.777344 355.457031 404.035156 330.847656 371.210938 C 325.898438 364.652344 319.082031 355.972656 310.195312 354.621094 C 298.519531 352.75 292.617188 365.003906 286.5625 364.570312 C 274.03125 363.613281 272.332031 352.398438 258.773438 348.890625 C 249.632812 346.472656 248.46875 358.34375 242.5 359.335938 C 233.441406 360.800781 227.871094 351.644531 217.832031 356.019531 C 198.386719 364.28125 202.535156 394.828125 208.210938 411.210938 Z M 208.210938 411.210938 " fill-opacity="1" fill-rule="nonzero"/></g></g></g><g clip-path="url(#e1f8001fee)"><g clip-path="url(#92c06fd7ec)"><g clip-path="url(#a74a9482f6)"><path fill="#fff8ef" d="M 325.40625 410.886719 C 333.007812 432.996094 347.527344 422.128906 364.269531 429.792969 C 381.792969 437.714844 387.378906 461.414062 408.261719 463.164062 C 458.5 467.453125 472.648438 403.707031 448.042969 370.886719 C 443.09375 364.324219 436.273438 355.644531 427.386719 354.292969 C 415.714844 352.425781 409.8125 364.675781 403.757812 364.246094 C 391.226562 363.289062 389.523438 352.070312 375.964844 348.566406 C 366.824219 346.148438 365.660156 358.019531 359.695312 359.011719 C 350.636719 360.476562 345.0625 351.320312 335.023438 355.691406 C 315.578125 363.957031 319.730469 394.503906 325.40625 410.886719 Z M 325.40625 410.886719 " fill-opacity="1" fill-rule="nonzero"/></g></g></g><g clip-path="url(#3e1dae14fb)"><g clip-path="url(#2443e7fbe3)"><g clip-path="url(#f5d561efa2)"><path fill="#fff8ef" d="M 442.601562 410.558594 C 450.199219 432.671875 464.71875 421.804688 481.464844 429.46875 C 498.988281 437.390625 504.574219 461.085938 525.453125 462.839844 C 575.695312 467.125 589.84375 403.382812 565.234375 370.5625 C 560.289062 364 553.46875 355.320312 544.582031 353.96875 C 532.90625 352.101562 527.007812 364.351562 520.949219 363.917969 C 508.421875 362.964844 506.71875 351.746094 493.160156 348.242188 C 484.019531 345.824219 482.855469 357.695312 476.886719 358.6875 C 467.828125 360.152344 462.257812 350.996094 452.21875 355.367188 C 432.773438 363.632812 436.921875 394.175781 442.601562 410.558594 Z M 442.601562 410.558594 " fill-opacity="1" fill-rule="nonzero"/></g></g></g><g clip-path="url(#70d7517080)"><g clip-path="url(#0acbc12409)"><g clip-path="url(#4ac307eaca)"><path fill="#fff8ef" d="M 559.792969 410.234375 C 567.394531 432.347656 581.914062 421.476562 598.65625 429.144531 C 616.179688 437.0625 621.769531 460.761719 642.648438 462.515625 C 692.890625 466.800781 707.039062 403.058594 682.429688 370.234375 C 677.480469 363.675781 670.664062 354.996094 661.777344 353.640625 C 650.101562 351.773438 644.199219 364.023438 638.144531 363.59375 C 625.613281 362.636719 623.914062 351.421875 610.351562 347.914062 C 601.214844 345.496094 600.050781 357.367188 594.082031 358.359375 C 585.023438 359.824219 579.449219 350.667969 569.414062 355.042969 C 549.96875 363.304688 554.117188 393.851562 559.792969 410.234375 Z M 559.792969 410.234375 " fill-opacity="1" fill-rule="nonzero"/></g></g></g><g clip-path="url(#21c6e27cdb)"><g clip-path="url(#a780e1590f)"><g clip-path="url(#e97aceee36)"><path fill="#fff8ef" d="M 676.988281 409.90625 C 684.589844 432.019531 699.105469 421.152344 715.851562 428.816406 C 733.375 436.738281 738.960938 460.4375 759.839844 462.1875 C 810.082031 466.472656 824.230469 402.730469 799.625 369.910156 C 794.675781 363.347656 787.855469 354.667969 778.96875 353.316406 C 767.296875 351.449219 761.394531 363.699219 755.339844 363.265625 C 742.808594 362.3125 741.105469 351.09375 727.546875 347.589844 C 718.40625 345.171875 717.242188 357.042969 711.273438 358.035156 C 702.21875 359.5 696.644531 350.34375 686.605469 354.714844 C 667.160156 362.980469 671.308594 393.527344 676.988281 409.90625 Z M 676.988281 409.90625 " fill-opacity="1" fill-rule="nonzero"/></g></g></g><g clip-path="url(#6948986229)"><g clip-path="url(#26934c92c5)"><g clip-path="url(#49cd3091ba)"><path fill="#fff8ef" d="M 794.183594 409.582031 C 801.78125 431.695312 816.300781 420.828125 833.046875 428.492188 C 850.570312 436.414062 856.15625 460.109375 877.035156 461.863281 C 927.277344 466.148438 941.425781 402.40625 916.816406 369.582031 C 911.867188 363.023438 905.050781 354.34375 896.164062 352.992188 C 884.488281 351.125 878.589844 363.375 872.53125 362.941406 C 860 361.984375 858.300781 350.769531 844.742188 347.261719 C 835.601562 344.847656 834.4375 356.714844 828.46875 357.707031 C 819.410156 359.175781 813.839844 350.019531 803.800781 354.390625 C 784.355469 362.65625 788.503906 393.199219 794.183594 409.582031 Z M 794.183594 409.582031 " fill-opacity="1" fill-rule="nonzero"/></g></g></g><path fill="#ffffff" d="M 1173.238281 246.085938 C 1173.238281 260.074219 1168.535156 291.121094 1173.238281 303.878906 C 1182.46875 328.925781 1180.996094 338.394531 1172.367188 358.53125 C 1172.367188 358.53125 1162.375 356.472656 1156.910156 366.078125 C 1154.921875 369.574219 1149.898438 381.902344 1159.0625 381.902344 C 1168.078125 381.902344 1186.035156 380.734375 1191.328125 380.734375 C 1199.234375 380.734375 1202.113281 373.542969 1202.113281 362.039062 C 1202.113281 351.972656 1221.621094 329.132812 1217.035156 321.046875 C 1210.214844 309.007812 1208.949219 307.652344 1210.835938 300.550781 C 1214.832031 285.492188 1222.3125 269.519531 1222.964844 248.238281 C 1223.507812 230.707031 1212.261719 198.621094 1187.441406 198.621094 C 1169.667969 198.621094 1173.238281 206.085938 1173.238281 246.085938 " fill-opacity="1" fill-rule="nonzero"/><path fill="#ffffff" d="M 1204.484375 347.445312 C 1200.195312 341.40625 1195.902344 334.152344 1188.492188 331.578125 C 1185.578125 330.566406 1182.578125 330.171875 1179.496094 329.988281 C 1178.953125 338.949219 1176.542969 346.582031 1171.832031 357.582031 C 1171.832031 357.582031 1161.820312 356.476562 1156.179688 366.386719 C 1154.136719 369.992188 1148.953125 382.710938 1158.40625 382.710938 C 1167.707031 382.710938 1185.328125 382.753906 1190.792969 382.753906 C 1198.953125 382.753906 1202.816406 374.085938 1202.816406 362.214844 C 1202.816406 359.195312 1204.359375 354.085938 1206.652344 349.535156 C 1205.839844 348.542969 1205.230469 348.492188 1204.484375 347.445312 " fill-opacity="1" fill-rule="nonzero"/><path fill="#231f20" d="M 1157 382.03125 C 1156.726562 380.359375 1157.03125 378.691406 1157.609375 377.132812 C 1158.207031 375.578125 1159.140625 374.109375 1160.40625 372.914062 C 1161.65625 371.710938 1163.246094 370.8125 1164.929688 370.421875 C 1166.617188 370.03125 1168.375 370.121094 1169.917969 370.796875 C 1168.382812 371.472656 1167.039062 372.066406 1165.851562 372.796875 C 1164.660156 373.511719 1163.613281 374.328125 1162.628906 375.261719 C 1161.644531 376.191406 1160.734375 377.230469 1159.820312 378.367188 C 1158.910156 379.503906 1158.019531 380.714844 1157 382.03125 " fill-opacity="1" fill-rule="nonzero"/><path fill="#231f20" d="M 1154.957031 372.996094 C 1154.664062 371.558594 1154.867188 370.046875 1155.445312 368.664062 C 1156.042969 367.28125 1157.089844 366.019531 1158.414062 365.171875 C 1159.738281 364.308594 1161.28125 363.890625 1162.742188 363.847656 C 1164.21875 363.808594 1165.632812 364.101562 1166.953125 364.777344 C 1165.621094 365.445312 1164.367188 365.867188 1163.230469 366.34375 C 1162.089844 366.816406 1161.085938 367.300781 1160.171875 367.886719 C 1159.253906 368.480469 1158.414062 369.167969 1157.585938 370.03125 C 1156.746094 370.894531 1155.957031 371.882812 1154.957031 372.996094 " fill-opacity="1" fill-rule="nonzero"/><path fill="#231f20" d="M 1167.355469 382.570312 C 1167.0625 381.128906 1167.261719 379.625 1167.851562 378.242188 C 1168.445312 376.855469 1169.492188 375.589844 1170.820312 374.742188 C 1172.144531 373.882812 1173.679688 373.460938 1175.140625 373.425781 C 1176.617188 373.382812 1178.03125 373.675781 1179.355469 374.347656 C 1178.023438 375.019531 1176.773438 375.4375 1175.640625 375.917969 C 1174.496094 376.386719 1173.488281 376.875 1172.566406 377.460938 C 1171.660156 378.054688 1170.820312 378.742188 1169.988281 379.605469 C 1169.148438 380.46875 1168.363281 381.453125 1167.355469 382.570312 " fill-opacity="1" fill-rule="nonzero"/><path fill="#ffffff" d="M 1343.675781 291.453125 C 1320.957031 286.566406 1266.714844 281.320312 1239.109375 326.761719 C 1238.851562 327.191406 1238.585938 327.609375 1238.320312 328.015625 L 1238.285156 327.902344 C 1238.175781 328.125 1238.058594 328.351562 1237.945312 328.570312 C 1237.742188 328.875 1237.527344 329.191406 1237.328125 329.492188 L 1237.332031 329.746094 C 1222.445312 356.734375 1179.074219 354.199219 1179.074219 354.199219 C 1173.582031 335.285156 1143.617188 332.5 1149.140625 351.507812 C 1151.160156 358.472656 1154.207031 368.949219 1154.207031 368.949219 C 1159.234375 382.964844 1167.734375 381.613281 1176.382812 380.261719 C 1180.007812 379.695312 1183.660156 379.128906 1187.097656 379.695312 C 1201.738281 382.109375 1220.515625 383.355469 1231.296875 382.046875 C 1233.160156 381.816406 1241.023438 379.65625 1242.257812 378.582031 C 1242.261719 378.59375 1243.578125 378.03125 1245.242188 377.476562 C 1247.367188 376.757812 1250.066406 376.046875 1251.351562 376.515625 C 1316.675781 400.507812 1371.5 386.949219 1378.191406 342.648438 C 1381.390625 321.410156 1364.371094 295.898438 1343.675781 291.453125 " fill-opacity="1" fill-rule="nonzero"/><path fill="#ffffff" d="M 1207.90625 354.230469 C 1207.390625 354.210938 1207.121094 354.199219 1207.121094 354.199219 C 1206.933594 353.570312 1206.726562 352.964844 1206.492188 352.371094 C 1206.960938 353 1207.429688 353.617188 1207.90625 354.230469 " fill-opacity="1" fill-rule="nonzero"/><path fill="#ffffff" d="M 1206.34375 359.511719 C 1205.851562 357.203125 1205.210938 353.804688 1204.605469 351.519531 C 1191.484375 352.960938 1179.082031 352.949219 1179.082031 352.949219 C 1173.480469 333.644531 1142.414062 332.058594 1148.050781 351.449219 C 1150.117188 358.570312 1153.222656 369.257812 1153.222656 369.257812 C 1158.386719 383.65625 1167.332031 382.417969 1176.335938 381.183594 C 1180.023438 380.675781 1183.71875 380.167969 1187.164062 380.738281 C 1192.5625 381.625 1199.640625 382.171875 1206.671875 381.90625 C 1207.898438 374.472656 1207.957031 367.191406 1206.34375 359.511719 " fill-opacity="1" fill-rule="nonzero"/><path fill="#231f20" d="M 1147.984375 343.511719 C 1149.515625 342.785156 1151.203125 342.609375 1152.867188 342.726562 C 1154.527344 342.867188 1156.199219 343.355469 1157.699219 344.230469 C 1159.199219 345.097656 1160.496094 346.375 1161.351562 347.886719 C 1162.195312 349.398438 1162.597656 351.117188 1162.382812 352.78125 C 1161.296875 351.492188 1160.359375 350.375 1159.324219 349.433594 C 1158.304688 348.488281 1157.226562 347.710938 1156.058594 347.027344 C 1154.894531 346.339844 1153.644531 345.753906 1152.296875 345.199219 C 1150.953125 344.636719 1149.546875 344.125 1147.984375 343.511719 " fill-opacity="1" fill-rule="nonzero"/><path fill="#231f20" d="M 1156.097656 339.023438 C 1157.390625 338.335938 1158.894531 338.113281 1160.390625 338.289062 C 1161.886719 338.476562 1163.390625 339.132812 1164.570312 340.164062 C 1165.765625 341.195312 1166.601562 342.550781 1167.042969 343.953125 C 1167.492188 345.359375 1167.609375 346.796875 1167.339844 348.25 C 1166.3125 347.160156 1165.5625 346.070312 1164.785156 345.117188 C 1164.027344 344.15625 1163.269531 343.324219 1162.445312 342.605469 C 1161.628906 341.890625 1160.734375 341.277344 1159.679688 340.726562 C 1158.613281 340.15625 1157.441406 339.679688 1156.097656 339.023438 " fill-opacity="1" fill-rule="nonzero"/><path fill="#231f20" d="M 1149.046875 353.425781 C 1150.347656 352.742188 1151.851562 352.515625 1153.339844 352.695312 C 1154.839844 352.875 1156.347656 353.53125 1157.527344 354.570312 C 1158.71875 355.601562 1159.546875 356.957031 1160.003906 358.347656 C 1160.445312 359.761719 1160.566406 361.199219 1160.292969 362.65625 C 1159.269531 361.566406 1158.519531 360.476562 1157.746094 359.523438 C 1156.976562 358.558594 1156.222656 357.722656 1155.402344 357.011719 C 1154.578125 356.292969 1153.683594 355.683594 1152.632812 355.125 C 1151.5625 354.558594 1150.398438 354.082031 1149.046875 353.425781 " fill-opacity="1" fill-rule="nonzero"/><path fill="#f3aa46" d="M 1382.867188 377.320312 C 1418.027344 330.484375 1398.773438 246.84375 1326.035156 214.980469 C 1252.164062 182.617188 1259.554688 141.625 1259.554688 141.625 L 1172.875 178.683594 C 1172.875 178.683594 1172.875 218.507812 1172.875 271.609375 C 1172.875 305.035156 1209.988281 369.832031 1234.863281 377.320312 L 1382.867188 377.320312 " fill-opacity="1" fill-rule="nonzero"/><path fill="#ef773b" d="M 1326.453125 214.800781 C 1252.585938 182.441406 1259.972656 141.449219 1259.972656 141.449219 L 1236.679688 151.40625 C 1237.703125 158.878906 1244.128906 192.792969 1277.867188 213.183594 C 1315.953125 236.195312 1348.785156 256.332031 1348.785156 299.472656 C 1348.785156 327.953125 1359.9375 359.558594 1375.453125 377.140625 L 1383.289062 377.140625 C 1418.453125 330.304688 1399.195312 246.664062 1326.453125 214.800781 " fill-opacity="1" fill-rule="nonzero"/><path fill="#f3aa46" d="M 1406.101562 293.804688 C 1406.101562 293.804688 1420.601562 264.714844 1410.488281 233.492188 C 1400.378906 202.261719 1432.839844 183.214844 1438.722656 178.28125 C 1438.722656 178.28125 1424.5625 209.917969 1431.210938 226.476562 C 1443.195312 256.328125 1452.808594 312.6875 1395.363281 343.128906 C 1395.363281 343.128906 1387.371094 308.632812 1406.101562 293.804688 " fill-opacity="1" fill-rule="nonzero"/><path fill="#ffffff" d="M 1410.488281 233.492188 C 1410.59375 233.734375 1418.480469 234.878906 1421.710938 233.828125 C 1429.324219 231.34375 1431.574219 227.882812 1431.210938 226.476562 C 1426.242188 207.417969 1440.441406 175.417969 1440.441406 175.417969 C 1434.558594 180.359375 1395.414062 196.953125 1410.488281 233.492188 " fill-opacity="1" fill-rule="nonzero"/><path fill="#f3aa46" d="M 1171.320312 61.9375 C 1171.320312 61.9375 1159.84375 63.632812 1147.5625 68.902344 C 1133.6875 74.851562 1118.351562 82.300781 1109.660156 89.382812 C 1101.960938 95.667969 1099.300781 100.507812 1101.925781 109.035156 C 1106.507812 123.910156 1117.355469 160.148438 1123.152344 179.574219 C 1125.460938 187.3125 1130.472656 190.382812 1135.101562 186.742188 C 1144.023438 179.753906 1157.191406 166.730469 1157.769531 150.449219 C 1158.652344 125.707031 1171.320312 61.9375 1171.320312 61.9375 " fill-opacity="1" fill-rule="nonzero"/><path fill="#f3aa46" d="M 1254.957031 123.695312 L 1246.671875 75.6875 L 1233.40625 62.480469 C 1233.40625 62.480469 1224.074219 60.976562 1221.511719 61.25 C 1215.296875 61.90625 1204.648438 64.1875 1198.382812 64.164062 L 1198.382812 64.230469 L 1198.378906 64.164062 C 1192.121094 64.21875 1181.457031 61.996094 1175.234375 61.375 C 1172.667969 61.121094 1157.015625 64.671875 1150.152344 75.953125 C 1143.8125 86.351562 1142.136719 124.003906 1142.136719 124.003906 C 1138.285156 131.179688 1132.765625 153.941406 1146.050781 162.785156 C 1167.492188 177.054688 1172.277344 187.984375 1191.0625 187.929688 L 1198.71875 187.914062 L 1198.722656 187.855469 L 1198.726562 187.914062 L 1206.375 187.890625 C 1225.164062 187.839844 1229.886719 176.878906 1251.25 162.492188 C 1264.488281 153.578125 1258.84375 130.847656 1254.957031 123.695312 " fill-opacity="1" fill-rule="nonzero"/><path fill="#ffffff" d="M 1210.085938 133.171875 L 1204.460938 63.691406 C 1202.976562 63.847656 1199.980469 64.023438 1198.457031 64.074219 C 1197.003906 64.125 1195.25 64.191406 1192.589844 63.828125 L 1187.042969 133.546875 C 1172.875 136.742188 1160.082031 145.46875 1160.117188 157.09375 C 1160.132812 164.046875 1169.507812 179.351562 1174.789062 184.070312 C 1179.328125 186.519531 1184.265625 187.914062 1190.988281 187.890625 L 1198.640625 187.871094 L 1198.648438 187.816406 L 1198.648438 187.871094 L 1206.300781 187.851562 C 1213.023438 187.828125 1217.945312 186.414062 1222.476562 183.941406 C 1227.738281 179.195312 1237.167969 160.984375 1237.144531 154.035156 C 1237.117188 142.445312 1224.265625 135.5625 1210.085938 133.171875 " fill-opacity="1" fill-rule="nonzero"/><path fill="#231f20" d="M 1237.148438 117.886719 C 1237.167969 121.953125 1235.082031 125.25 1232.5 125.261719 C 1229.921875 125.269531 1227.816406 121.976562 1227.808594 117.910156 C 1227.800781 113.851562 1229.882812 110.542969 1232.464844 110.539062 C 1235.046875 110.527344 1237.140625 113.820312 1237.148438 117.886719 " fill-opacity="1" fill-rule="nonzero"/><path fill="#231f20" d="M 1169.246094 118.070312 C 1169.257812 122.136719 1167.179688 125.4375 1164.601562 125.441406 C 1162.015625 125.453125 1159.914062 122.164062 1159.90625 118.097656 C 1159.890625 114.035156 1161.976562 110.734375 1164.558594 110.722656 C 1167.132812 110.714844 1169.238281 114.007812 1169.246094 118.070312 " fill-opacity="1" fill-rule="nonzero"/><path fill="#f3aa46" d="M 1232.863281 62.402344 C 1232.863281 62.402344 1233.503906 62.453125 1252.597656 66.148438 C 1265.046875 68.550781 1279.628906 72.59375 1293.785156 79.359375 C 1302.355469 83.464844 1301.355469 95.699219 1298.925781 104.398438 C 1294.273438 121.054688 1285.074219 158.878906 1281.011719 175.710938 C 1279.777344 180.863281 1273.546875 182.460938 1266.953125 179.003906 C 1256.941406 173.757812 1244.320312 164.183594 1244.285156 149.261719 C 1244.183594 112.476562 1244.070312 100.507812 1244.015625 80.449219 C 1243.984375 71.890625 1232.863281 62.402344 1232.863281 62.402344 " fill-opacity="1" fill-rule="nonzero"/><path fill="#231f20" d="M 1177.894531 131.605469 C 1179.148438 126.421875 1187.609375 125.15625 1198.230469 125.125 C 1211.074219 125.09375 1217.246094 126.335938 1218.320312 131.492188 C 1219.582031 137.5625 1207.488281 148.03125 1197.519531 148.058594 C 1189.414062 148.082031 1176.386719 137.882812 1177.894531 131.605469 " fill-opacity="1" fill-rule="nonzero"/><path fill="#231f20" d="M 1241.558594 154.257812 L 1241.257812 154.277344 L 1241.257812 154.28125 C 1238.210938 157.535156 1234.878906 160.5625 1231.292969 163.21875 C 1229.488281 164.53125 1227.628906 165.746094 1225.664062 166.746094 C 1223.710938 167.738281 1221.632812 168.519531 1219.5625 168.757812 C 1219.046875 168.8125 1218.542969 168.835938 1218.027344 168.8125 C 1217.503906 168.792969 1216.972656 168.742188 1216.457031 168.667969 C 1215.410156 168.515625 1214.386719 168.25 1213.390625 167.894531 C 1211.402344 167.183594 1209.546875 166.105469 1207.832031 164.832031 C 1206.125 163.554688 1204.554688 162.074219 1203.121094 160.476562 C 1202.402344 159.675781 1201.71875 158.84375 1201.074219 157.988281 C 1200.75 157.566406 1200.4375 157.132812 1200.132812 156.699219 C 1199.839844 156.273438 1199.523438 155.800781 1199.292969 155.410156 C 1199.144531 155.15625 1198.917969 154.925781 1198.644531 154.765625 C 1198.484375 154.671875 1199.273438 146.449219 1199.273438 146.449219 L 1195.945312 146.457031 C 1195.945312 146.457031 1196.316406 154.984375 1196.070312 155.378906 L 1196.050781 155.417969 C 1195.808594 155.804688 1195.507812 156.28125 1195.210938 156.710938 C 1194.910156 157.144531 1194.597656 157.578125 1194.277344 158.007812 C 1193.628906 158.863281 1192.949219 159.691406 1192.242188 160.5 C 1190.8125 162.097656 1189.253906 163.585938 1187.546875 164.871094 C 1185.84375 166.152344 1183.984375 167.230469 1182.007812 167.949219 C 1181.015625 168.308594 1179.996094 168.578125 1178.957031 168.734375 C 1178.433594 168.8125 1177.917969 168.863281 1177.386719 168.886719 L 1177.199219 168.894531 L 1176.625 168.894531 C 1176.371094 168.886719 1176.117188 168.863281 1175.855469 168.839844 C 1173.796875 168.609375 1171.71875 167.835938 1169.769531 166.855469 C 1167.804688 165.867188 1165.933594 164.664062 1164.128906 163.355469 C 1160.539062 160.722656 1157.195312 157.714844 1154.140625 154.472656 L 1154.132812 154.464844 C 1154.03125 154.351562 1153.855469 154.34375 1153.734375 154.433594 C 1153.613281 154.539062 1153.589844 154.710938 1153.699219 154.832031 C 1156.585938 158.285156 1159.753906 161.503906 1163.261719 164.410156 C 1165.023438 165.859375 1166.882812 167.210938 1168.898438 168.378906 C 1170.910156 169.535156 1173.09375 170.535156 1175.546875 170.949219 C 1175.84375 171 1176.15625 171.046875 1176.472656 171.074219 C 1176.628906 171.085938 1176.78125 171.097656 1176.953125 171.105469 L 1177.175781 171.117188 L 1177.414062 171.121094 C 1178.023438 171.132812 1178.640625 171.105469 1179.25 171.046875 C 1180.464844 170.941406 1181.671875 170.695312 1182.839844 170.347656 C 1185.171875 169.652344 1187.332031 168.550781 1189.3125 167.238281 C 1191.292969 165.921875 1193.089844 164.394531 1194.746094 162.738281 C 1195.570312 161.914062 1196.363281 161.058594 1197.121094 160.164062 C 1197.316406 159.941406 1197.5 159.707031 1197.691406 159.472656 C 1197.875 159.703125 1198.058594 159.933594 1198.25 160.160156 C 1199.015625 161.042969 1199.8125 161.894531 1200.648438 162.714844 C 1202.308594 164.355469 1204.121094 165.867188 1206.109375 167.171875 C 1208.09375 168.472656 1210.261719 169.558594 1212.597656 170.238281 C 1213.765625 170.578125 1214.96875 170.816406 1216.1875 170.917969 C 1216.792969 170.96875 1217.40625 170.988281 1218.011719 170.972656 C 1218.636719 170.964844 1219.269531 170.894531 1219.878906 170.792969 C 1222.320312 170.359375 1224.492188 169.34375 1226.496094 168.179688 C 1228.492188 167 1230.335938 165.632812 1232.089844 164.179688 C 1235.578125 161.25 1238.71875 158.011719 1241.582031 154.542969 L 1241.558594 154.257812 " fill-opacity="1" fill-rule="nonzero"/><path fill="#f3aa46" d="M 1371.722656 291.453125 C 1348.992188 286.566406 1294.757812 281.320312 1267.148438 326.761719 C 1266.886719 327.191406 1266.621094 327.609375 1266.355469 328.015625 L 1266.324219 327.902344 C 1266.21875 328.125 1266.101562 328.351562 1265.992188 328.570312 C 1265.785156 328.875 1265.574219 329.191406 1265.363281 329.492188 L 1265.371094 329.746094 C 1250.480469 356.734375 1207.121094 354.199219 1207.121094 354.199219 C 1201.625 335.285156 1171.660156 332.5 1177.175781 351.507812 C 1179.207031 358.472656 1182.25 368.949219 1182.25 368.949219 C 1187.277344 382.964844 1195.769531 381.613281 1204.417969 380.261719 C 1208.046875 379.695312 1211.703125 379.128906 1215.136719 379.695312 C 1229.777344 382.109375 1248.554688 383.355469 1259.339844 382.046875 C 1261.203125 381.816406 1269.070312 379.65625 1270.300781 378.582031 C 1270.300781 378.59375 1271.613281 378.03125 1273.28125 377.476562 C 1275.410156 376.757812 1278.105469 376.046875 1279.394531 376.515625 C 1344.71875 400.507812 1399.539062 386.949219 1406.226562 342.648438 C 1409.429688 321.410156 1392.40625 295.898438 1371.722656 291.453125 " fill-opacity="1" fill-rule="nonzero"/><path fill="#ffffff" d="M 1406.613281 337.335938 C 1406.613281 336.980469 1406.609375 336.628906 1406.601562 336.277344 C 1406.605469 336.277344 1406.601562 336.277344 1406.605469 336.277344 C 1406.613281 336.628906 1406.617188 336.980469 1406.613281 337.335938 " fill-opacity="1" fill-rule="nonzero"/><path fill="#f7bc61" d="M 1232.210938 351.738281 C 1244.695312 347.800781 1258.511719 342.132812 1265.371094 329.699219 L 1265.371094 329.746094 C 1258.226562 342.691406 1244.527344 348.84375 1232.210938 351.738281 M 1265.363281 329.492188 L 1265.363281 329.445312 C 1265.574219 329.144531 1265.785156 328.835938 1265.992188 328.523438 C 1266.101562 328.304688 1266.21875 328.085938 1266.324219 327.855469 L 1266.355469 327.972656 C 1266.621094 327.5625 1266.886719 327.144531 1267.148438 326.714844 C 1286.015625 295.660156 1317.324219 288.277344 1342.507812 288.277344 C 1344.378906 288.277344 1346.214844 288.320312 1348.003906 288.394531 C 1348.011719 288.40625 1348.011719 288.425781 1348.015625 288.441406 C 1346.21875 288.367188 1344.382812 288.324219 1342.511719 288.324219 C 1317.328125 288.324219 1286.015625 295.699219 1267.148438 326.761719 C 1266.886719 327.191406 1266.621094 327.609375 1266.355469 328.015625 L 1266.324219 327.902344 C 1266.21875 328.125 1266.101562 328.351562 1265.992188 328.570312 C 1265.785156 328.875 1265.574219 329.191406 1265.363281 329.492188 " fill-opacity="1" fill-rule="nonzero"/><path fill="#f39051" d="M 1396.289062 308.4375 C 1389.9375 299.96875 1381.21875 293.492188 1371.722656 291.453125 C 1365.683594 290.152344 1357.414062 288.832031 1348.015625 288.441406 C 1348.011719 288.425781 1348.011719 288.40625 1348.003906 288.394531 C 1357.40625 288.785156 1365.675781 290.113281 1371.722656 291.40625 C 1381.222656 293.453125 1389.949219 299.933594 1396.300781 308.40625 C 1396.296875 308.414062 1396.296875 308.429688 1396.289062 308.4375 " fill-opacity="1" fill-rule="nonzero"/><path fill="#f7bc61" d="M 1406.601562 336.277344 C 1406.328125 326.617188 1402.414062 316.605469 1396.289062 308.4375 C 1396.296875 308.429688 1396.296875 308.414062 1396.300781 308.40625 C 1402.429688 316.582031 1406.339844 326.601562 1406.605469 336.277344 C 1406.601562 336.277344 1406.605469 336.277344 1406.601562 336.277344 " fill-opacity="1" fill-rule="nonzero"/><path fill="#f7bc61" d="M 1211.320312 366.652344 C 1208.675781 366.652344 1207.121094 366.558594 1207.121094 366.558594 C 1204.804688 358.601562 1217.597656 356.355469 1232.210938 351.738281 C 1244.527344 348.84375 1258.226562 342.691406 1265.371094 329.746094 L 1265.371094 329.699219 L 1265.363281 329.492188 C 1265.574219 329.191406 1265.785156 328.875 1265.992188 328.570312 C 1266.101562 328.351562 1266.21875 328.125 1266.324219 327.902344 L 1266.355469 328.015625 C 1266.621094 327.609375 1266.886719 327.191406 1267.148438 326.761719 C 1286.015625 295.699219 1317.328125 288.324219 1342.511719 288.324219 C 1344.382812 288.324219 1346.21875 288.367188 1348.015625 288.441406 C 1357.414062 288.832031 1365.683594 290.152344 1371.722656 291.453125 C 1381.21875 293.492188 1389.9375 299.96875 1396.289062 308.4375 C 1402.414062 316.605469 1406.328125 326.617188 1406.601562 336.277344 C 1406.609375 336.628906 1406.613281 336.980469 1406.613281 337.335938 C 1406.613281 339.109375 1406.488281 340.867188 1406.226562 342.601562 C 1406.191406 342.863281 1406.140625 343.125 1406.097656 343.378906 C 1403.234375 325.339844 1384.636719 307.847656 1367.628906 304.195312 C 1360.445312 302.648438 1351.070312 301.070312 1340.738281 301.070312 C 1318.402344 301.070312 1291.601562 308.453125 1272.730469 339.523438 C 1272.464844 339.953125 1272.199219 340.367188 1271.941406 340.777344 L 1271.902344 340.664062 C 1271.800781 340.886719 1271.683594 341.105469 1271.566406 341.332031 C 1271.363281 341.640625 1271.15625 341.953125 1270.941406 342.253906 L 1270.953125 342.503906 C 1258.71875 364.679688 1223.5 366.652344 1211.320312 366.652344 " fill-opacity="1" fill-rule="nonzero"/><path fill="#ffffff" d="M 1234.382812 359.511719 C 1233.894531 357.203125 1233.257812 353.804688 1232.648438 351.519531 C 1219.53125 352.960938 1207.125 352.949219 1207.125 352.949219 C 1201.519531 333.644531 1170.457031 332.058594 1176.085938 351.449219 C 1178.160156 358.570312 1181.265625 369.257812 1181.265625 369.257812 C 1188.550781 389.558594 1203.339844 378.785156 1215.207031 380.738281 C 1220.601562 381.625 1227.679688 382.171875 1234.710938 381.90625 C 1235.9375 374.472656 1236 367.191406 1234.382812 359.511719 " fill-opacity="1" fill-rule="nonzero"/><path fill="#231f20" d="M 1176.03125 343.511719 C 1177.558594 342.785156 1179.246094 342.609375 1180.902344 342.726562 C 1182.566406 342.867188 1184.238281 343.355469 1185.738281 344.230469 C 1187.234375 345.097656 1188.539062 346.375 1189.386719 347.886719 C 1190.238281 349.398438 1190.640625 351.117188 1190.421875 352.78125 C 1189.34375 351.492188 1188.398438 350.375 1187.363281 349.433594 C 1186.347656 348.488281 1185.269531 347.710938 1184.101562 347.027344 C 1182.9375 346.339844 1181.679688 345.753906 1180.335938 345.199219 C 1178.988281 344.636719 1177.582031 344.125 1176.03125 343.511719 " fill-opacity="1" fill-rule="nonzero"/><path fill="#231f20" d="M 1184.128906 339.023438 C 1185.433594 338.335938 1186.9375 338.113281 1188.433594 338.289062 C 1189.921875 338.476562 1191.429688 339.132812 1192.617188 340.164062 C 1193.8125 341.195312 1194.640625 342.550781 1195.089844 343.953125 C 1195.539062 345.359375 1195.648438 346.796875 1195.375 348.25 C 1194.355469 347.160156 1193.605469 346.070312 1192.828125 345.117188 C 1192.066406 344.15625 1191.316406 343.324219 1190.492188 342.605469 C 1189.667969 341.890625 1188.773438 341.277344 1187.71875 340.726562 C 1186.648438 340.15625 1185.480469 339.679688 1184.128906 339.023438 " fill-opacity="1" fill-rule="nonzero"/><path fill="#231f20" d="M 1177.085938 353.425781 C 1178.386719 352.742188 1179.890625 352.515625 1181.382812 352.695312 C 1182.882812 352.875 1184.386719 353.53125 1185.570312 354.570312 C 1186.765625 355.601562 1187.59375 356.957031 1188.042969 358.347656 C 1188.488281 359.761719 1188.605469 361.199219 1188.332031 362.65625 C 1187.308594 361.566406 1186.566406 360.476562 1185.78125 359.523438 C 1185.019531 358.558594 1184.265625 357.722656 1183.441406 357.011719 C 1182.625 356.292969 1181.730469 355.683594 1180.671875 355.125 C 1179.609375 354.558594 1178.433594 354.082031 1177.085938 353.425781 " fill-opacity="1" fill-rule="nonzero"/><path fill="#f3aa46" d="M 1192.230469 254.4375 C 1192.230469 268.425781 1200.769531 279.515625 1212.992188 303.246094 C 1225.214844 326.980469 1223.054688 338.394531 1214.429688 358.53125 C 1214.429688 358.53125 1204.4375 356.472656 1198.96875 366.078125 C 1196.988281 369.574219 1191.960938 381.902344 1201.125 381.902344 C 1210.140625 381.902344 1228.09375 380.734375 1233.390625 380.734375 C 1241.304688 380.734375 1244.171875 373.542969 1244.171875 362.039062 C 1244.171875 351.972656 1263.679688 329.132812 1259.09375 321.046875 C 1252.28125 309.007812 1251.007812 307.652344 1252.894531 300.550781 C 1256.898438 285.492188 1264.371094 269.519531 1265.03125 248.238281 C 1265.570312 230.707031 1249.933594 201.140625 1225.101562 201.140625 C 1207.328125 201.140625 1192.230469 214.441406 1192.230469 254.4375 " fill-opacity="1" fill-rule="nonzero"/><path fill="#ffffff" d="M 1246.539062 347.445312 C 1242.253906 341.40625 1237.960938 334.152344 1230.550781 331.578125 C 1227.640625 330.566406 1224.636719 330.171875 1221.554688 329.988281 C 1221.015625 338.949219 1218.601562 346.582031 1213.890625 357.582031 C 1213.890625 357.582031 1203.878906 356.476562 1198.242188 366.386719 C 1196.199219 369.992188 1191.011719 382.710938 1200.46875 382.710938 C 1209.769531 382.710938 1227.386719 382.753906 1232.855469 382.753906 C 1241.011719 382.753906 1244.878906 374.085938 1244.878906 362.214844 C 1244.878906 359.195312 1246.417969 354.085938 1248.71875 349.535156 C 1247.90625 348.542969 1247.289062 348.492188 1246.539062 347.445312 " fill-opacity="1" fill-rule="nonzero"/><path fill="#231f20" d="M 1199.0625 382.03125 C 1198.789062 380.359375 1199.089844 378.691406 1199.667969 377.132812 C 1200.265625 375.578125 1201.207031 374.109375 1202.464844 372.914062 C 1203.714844 371.710938 1205.304688 370.8125 1206.992188 370.421875 C 1208.675781 370.03125 1210.433594 370.121094 1211.976562 370.796875 C 1210.441406 371.472656 1209.101562 372.066406 1207.910156 372.796875 C 1206.71875 373.511719 1205.675781 374.328125 1204.6875 375.261719 C 1203.707031 376.191406 1202.792969 377.230469 1201.886719 378.367188 C 1200.972656 379.503906 1200.082031 380.714844 1199.0625 382.03125 " fill-opacity="1" fill-rule="nonzero"/><path fill="#231f20" d="M 1197.019531 372.996094 C 1196.722656 371.558594 1196.925781 370.046875 1197.507812 368.664062 C 1198.101562 367.28125 1199.15625 366.019531 1200.480469 365.171875 C 1201.800781 364.308594 1203.339844 363.890625 1204.800781 363.847656 C 1206.277344 363.808594 1207.691406 364.101562 1209.015625 364.777344 C 1207.683594 365.445312 1206.425781 365.867188 1205.292969 366.34375 C 1204.152344 366.816406 1203.148438 367.300781 1202.230469 367.886719 C 1201.316406 368.480469 1200.472656 369.167969 1199.644531 370.03125 C 1198.804688 370.894531 1198.019531 371.882812 1197.019531 372.996094 " fill-opacity="1" fill-rule="nonzero"/><path fill="#231f20" d="M 1209.421875 382.570312 C 1209.121094 381.128906 1209.328125 379.625 1209.914062 378.242188 C 1210.507812 376.855469 1211.550781 375.589844 1212.882812 374.742188 C 1214.203125 373.882812 1215.738281 373.460938 1217.203125 373.425781 C 1218.675781 373.382812 1220.09375 373.675781 1221.414062 374.347656 C 1220.082031 375.019531 1218.832031 375.4375 1217.699219 375.917969 C 1216.558594 376.386719 1215.542969 376.875 1214.628906 377.460938 C 1213.714844 378.054688 1212.882812 378.742188 1212.050781 379.605469 C 1211.207031 380.46875 1210.421875 381.453125 1209.421875 382.570312 " fill-opacity="1" fill-rule="nonzero"/><path fill="#bdbcbc" d="M 1194.804688 386.195312 C 1190.136719 386.195312 1183.121094 386.195312 1183.121094 386.195312 C 1169.5625 385.351562 1173.851562 374.648438 1170.589844 367.808594 C 1149.574219 323.855469 1168.34375 287.714844 1182.339844 290.308594 C 1190.476562 291.816406 1195.644531 300.929688 1194.128906 309.804688 C 1191.984375 322.316406 1188.441406 367.980469 1188.441406 367.980469 C 1201.101562 367.980469 1207.523438 386.195312 1194.804688 386.195312 " fill-opacity="1" fill-rule="nonzero"/><path fill="#ffffff" d="M 1179.402344 254.648438 C 1180.363281 258.871094 1180.707031 263.28125 1180.734375 267.550781 C 1180.796875 276.945312 1182.921875 327.15625 1115.691406 353.546875 C 1101.148438 359.253906 1087.378906 367.296875 1072.34375 371.125 C 1071.679688 371.292969 1070.996094 371.472656 1070.304688 371.65625 C 1071.234375 373.261719 1072.234375 374.820312 1073.351562 376.3125 L 1159.054688 376.3125 C 1173.453125 371.972656 1194.945312 334.449219 1194.945312 315.097656 C 1194.945312 284.351562 1194.945312 261.292969 1194.945312 261.292969 L 1179.402344 254.648438 " fill-opacity="1" fill-rule="nonzero"/><path fill="#bdbcbc" d="M 1144.753906 239.839844 C 1144.753906 239.839844 1149.03125 263.574219 1106.261719 282.3125 C 1083.546875 292.257812 1069.855469 310.941406 1065.242188 330.28125 C 1061.710938 327.636719 1057.542969 323.246094 1059.460938 318.136719 C 1060.074219 316.5 1060.910156 314.503906 1061.875 312.1875 C 1065.558594 303.382812 1070.59375 291.3125 1071.9375 279.222656 C 1074.160156 259.273438 1064.816406 249.3125 1056.59375 244.460938 C 1053.417969 242.582031 1049.316406 243.648438 1047.433594 246.828125 C 1045.5625 250.011719 1046.625 254.113281 1049.800781 255.988281 C 1065.386719 265.171875 1057.835938 287.148438 1049.535156 307.03125 C 1048.515625 309.464844 1047.636719 311.570312 1046.9375 313.4375 C 1041.050781 329.144531 1055.070312 340.828125 1063.496094 344.910156 C 1063.476562 356.453125 1066.746094 367.503906 1073.351562 376.3125 L 1159.054688 376.3125 C 1173.453125 371.972656 1194.945312 334.449219 1194.945312 315.097656 C 1194.945312 284.351562 1194.945312 261.292969 1194.945312 261.292969 L 1144.753906 239.839844 " fill-opacity="1" fill-rule="nonzero"/><path fill="#bdbcbc" d="M 1178.539062 386.195312 C 1173.867188 386.195312 1166.859375 386.195312 1166.859375 386.195312 C 1153.292969 385.351562 1157.589844 374.648438 1154.324219 367.808594 C 1133.316406 323.855469 1152.078125 287.714844 1166.070312 290.308594 C 1174.210938 291.816406 1179.375 300.929688 1177.867188 309.804688 C 1175.726562 322.316406 1172.175781 367.980469 1172.175781 367.980469 C 1184.835938 367.980469 1191.257812 386.195312 1178.539062 386.195312 " fill-opacity="1" fill-rule="nonzero"/><path fill="#bdbcbc" d="M 1141.480469 208.980469 C 1141.480469 208.980469 1135.601562 182.9375 1147.574219 174.796875 C 1147.574219 174.796875 1166.566406 178.289062 1171.8125 192.855469 C 1171.8125 192.855469 1160.789062 207.351562 1141.480469 208.980469 " fill-opacity="1" fill-rule="nonzero"/><path fill="#ffffff" d="M 1148.367188 206.128906 C 1148.367188 206.128906 1144.632812 189.59375 1152.230469 184.417969 C 1152.230469 184.417969 1164.296875 186.640625 1167.621094 195.886719 C 1167.621094 195.886719 1160.628906 205.097656 1148.367188 206.128906 " fill-opacity="1" fill-rule="nonzero"/><path fill="#bdbcbc" d="M 1218.738281 225.730469 C 1218.738281 225.730469 1234.875 204.46875 1227.347656 192.105469 C 1227.347656 192.105469 1208.617188 187.417969 1197.816406 198.496094 C 1197.816406 198.496094 1201.84375 216.257812 1218.738281 225.730469 " fill-opacity="1" fill-rule="nonzero"/><path fill="#ffffff" d="M 1213.65625 220.292969 C 1213.65625 220.292969 1223.90625 206.789062 1219.128906 198.933594 C 1219.128906 198.933594 1207.230469 195.957031 1200.367188 202.988281 C 1200.367188 202.988281 1202.925781 214.269531 1213.65625 220.292969 " fill-opacity="1" fill-rule="nonzero"/><path fill="#bdbcbc" d="M 1131.984375 223.183594 C 1123.105469 243.914062 1145.476562 257.664062 1170.167969 263.023438 C 1194.871094 268.375 1222.089844 265.097656 1221.433594 242.578125 C 1220.671875 216.929688 1204.3125 196.996094 1185.378906 192.890625 C 1166.449219 188.785156 1142.457031 198.75 1131.984375 223.183594 " fill-opacity="1" fill-rule="nonzero"/><path fill="#ffffff" d="M 1178.238281 226.359375 C 1199.128906 230.890625 1213.769531 245.117188 1210.953125 258.128906 C 1210.6875 259.324219 1210.285156 260.46875 1209.765625 261.550781 C 1199.679688 266.328125 1184.503906 266.125 1170.167969 263.023438 C 1155.695312 259.878906 1142.027344 253.851562 1134.980469 245.234375 C 1134.960938 244.0625 1135.066406 242.886719 1135.324219 241.730469 C 1138.140625 228.710938 1157.359375 221.828125 1178.238281 226.359375 " fill-opacity="1" fill-rule="nonzero"/><path fill="#231f20" d="M 1153.652344 215.378906 C 1152.882812 218.316406 1153.773438 221.097656 1155.640625 221.589844 C 1157.507812 222.070312 1159.644531 220.082031 1160.410156 217.136719 C 1161.1875 214.203125 1160.292969 211.417969 1158.421875 210.933594 C 1156.558594 210.445312 1154.421875 212.433594 1153.652344 215.378906 " fill-opacity="1" fill-rule="nonzero"/><path fill="#231f20" d="M 1202.792969 228.210938 C 1202.019531 231.148438 1202.914062 233.929688 1204.78125 234.417969 C 1206.644531 234.90625 1208.78125 232.917969 1209.550781 229.972656 C 1210.324219 227.035156 1209.425781 224.25 1207.5625 223.765625 C 1205.695312 223.28125 1203.558594 225.269531 1202.792969 228.210938 " fill-opacity="1" fill-rule="nonzero"/><path fill="#f8a3d6" d="M 1176.40625 255.371094 L 1175.996094 257.144531 C 1175.527344 259.144531 1173.539062 260.386719 1171.539062 259.921875 C 1169.546875 259.457031 1168.304688 257.46875 1168.769531 255.46875 L 1169.160156 253.796875 C 1169.160156 253.796875 1170.960938 253.609375 1172.191406 252.277344 C 1173.488281 250.871094 1173.957031 250.527344 1174.457031 252.464844 C 1175.019531 254.664062 1176.40625 255.371094 1176.40625 255.371094 " fill-opacity="1" fill-rule="nonzero"/><path fill="#231f20" d="M 1182.628906 248.507812 L 1182.308594 248.46875 C 1181.632812 248.46875 1181.050781 248.929688 1180.898438 249.59375 L 1180.308594 252.136719 C 1180.179688 252.660156 1179.890625 253.113281 1179.496094 253.386719 C 1178.953125 253.765625 1178.203125 253.839844 1177.234375 253.609375 C 1176.371094 253.414062 1175.875 252.929688 1175.617188 252.046875 C 1175.367188 251.175781 1175.464844 250.257812 1175.523438 249.871094 C 1175.574219 249.714844 1175.609375 249.570312 1175.632812 249.484375 L 1177.949219 239.480469 L 1178.078125 238.714844 L 1175.273438 238.078125 L 1172.78125 248.828125 L 1172.722656 249.121094 C 1172.5625 249.683594 1172.246094 250.484375 1171.664062 251.128906 C 1171.039062 251.8125 1170.382812 252.019531 1169.523438 251.824219 C 1168.605469 251.613281 1167.972656 251.226562 1167.632812 250.6875 C 1167.273438 250.105469 1167.34375 249.464844 1167.421875 249.140625 L 1168.003906 246.605469 C 1168.09375 246.234375 1168.03125 245.84375 1167.828125 245.511719 C 1167.621094 245.175781 1167.300781 244.953125 1166.914062 244.859375 C 1166.152344 244.6875 1165.359375 245.179688 1165.183594 245.949219 L 1164.59375 248.484375 C 1164.046875 250.855469 1165.152344 253.789062 1168.871094 254.648438 C 1170.425781 255.007812 1171.933594 254.683594 1173.152344 253.699219 C 1173.816406 255.109375 1175.003906 256.074219 1176.582031 256.4375 C 1177.144531 256.570312 1177.699219 256.632812 1178.214844 256.632812 C 1179.613281 256.632812 1180.582031 256.167969 1181.148438 255.773438 C 1182.480469 254.839844 1182.960938 253.503906 1183.132812 252.785156 L 1183.714844 250.25 C 1183.898438 249.476562 1183.414062 248.691406 1182.628906 248.507812 " fill-opacity="1" fill-rule="nonzero"/><path fill="#231f20" d="M 1165.84375 234.6875 C 1164.941406 238.574219 1169.128906 242.867188 1175.195312 244.273438 C 1181.265625 245.683594 1186.917969 243.671875 1187.8125 239.785156 C 1188.714844 235.898438 1184.53125 231.601562 1178.460938 230.199219 C 1172.394531 228.785156 1166.742188 230.800781 1165.84375 234.6875 " fill-opacity="1" fill-rule="nonzero"/><path fill="#231f20" d="M 1163.867188 230.5 C 1164.097656 230.5 1164.328125 230.402344 1164.484375 230.203125 C 1164.757812 229.859375 1164.699219 229.359375 1164.359375 229.089844 C 1164.132812 228.917969 1142.558594 212.066406 1121.019531 212.3125 C 1120.585938 212.316406 1120.226562 212.675781 1120.234375 213.113281 C 1120.242188 213.550781 1120.597656 213.898438 1121.027344 213.898438 L 1121.039062 213.898438 C 1121.203125 213.898438 1121.371094 213.898438 1121.535156 213.898438 C 1142.328125 213.898438 1163.164062 230.164062 1163.375 230.332031 C 1163.519531 230.445312 1163.691406 230.5 1163.867188 230.5 " fill-opacity="1" fill-rule="nonzero"/><path fill="#231f20" d="M 1162.09375 232.578125 C 1162.371094 232.578125 1162.636719 232.433594 1162.777344 232.175781 C 1163 231.796875 1162.867188 231.3125 1162.492188 231.097656 C 1162.234375 230.953125 1136.847656 216.546875 1114.8125 217.667969 C 1114.375 217.683594 1114.042969 218.0625 1114.0625 218.5 C 1114.085938 218.933594 1114.464844 219.273438 1114.890625 219.242188 C 1136.457031 218.144531 1161.453125 232.332031 1161.703125 232.472656 C 1161.828125 232.539062 1161.964844 232.578125 1162.09375 232.578125 " fill-opacity="1" fill-rule="nonzero"/><path fill="#231f20" d="M 1161.355469 235.257812 C 1161.644531 235.257812 1161.921875 235.097656 1162.0625 234.816406 C 1162.257812 234.433594 1162.097656 233.957031 1161.71875 233.757812 C 1161.511719 233.648438 1141.007812 223.40625 1117.046875 224.84375 C 1116.609375 224.871094 1116.273438 225.242188 1116.296875 225.679688 C 1116.324219 226.117188 1116.707031 226.457031 1117.136719 226.425781 C 1140.65625 225.023438 1160.796875 235.066406 1160.996094 235.171875 C 1161.109375 235.226562 1161.234375 235.257812 1161.355469 235.257812 " fill-opacity="1" fill-rule="nonzero"/><path fill="#231f20" d="M 1160.945312 237.902344 C 1161.285156 237.902344 1161.601562 237.683594 1161.703125 237.34375 C 1161.828125 236.921875 1161.601562 236.480469 1161.1875 236.355469 C 1160.988281 236.292969 1141.363281 230.28125 1124.324219 232.019531 C 1123.890625 232.0625 1123.574219 232.449219 1123.617188 232.886719 C 1123.664062 233.324219 1124.039062 233.644531 1124.488281 233.59375 C 1141.210938 231.894531 1160.515625 237.804688 1160.710938 237.863281 L 1160.945312 237.902344 " fill-opacity="1" fill-rule="nonzero"/><path fill="#231f20" d="M 1235.644531 248.589844 C 1235.898438 248.589844 1236.144531 248.472656 1236.300781 248.25 C 1236.550781 247.890625 1236.460938 247.398438 1236.101562 247.152344 C 1218.367188 234.953125 1191.03125 236.960938 1190.757812 236.984375 C 1190.324219 237.015625 1189.996094 237.402344 1190.03125 237.835938 C 1190.0625 238.269531 1190.425781 238.59375 1190.882812 238.5625 C 1191.144531 238.542969 1217.9375 236.578125 1235.203125 248.457031 C 1235.339844 248.546875 1235.492188 248.589844 1235.644531 248.589844 " fill-opacity="1" fill-rule="nonzero"/><path fill="#231f20" d="M 1237.625 256.4375 C 1237.867188 256.4375 1238.105469 256.335938 1238.257812 256.125 C 1238.523438 255.777344 1238.449219 255.277344 1238.101562 255.019531 C 1220.414062 241.828125 1191.296875 239.675781 1191.003906 239.65625 C 1190.574219 239.628906 1190.191406 239.949219 1190.160156 240.390625 C 1190.132812 240.828125 1190.460938 241.207031 1190.902344 241.230469 C 1191.183594 241.253906 1219.847656 243.375 1237.148438 256.289062 C 1237.292969 256.390625 1237.460938 256.4375 1237.625 256.4375 " fill-opacity="1" fill-rule="nonzero"/><path fill="#231f20" d="M 1231.832031 261.292969 C 1232.074219 261.292969 1232.3125 261.179688 1232.464844 260.976562 C 1232.730469 260.625 1232.660156 260.132812 1232.3125 259.867188 C 1213.199219 245.359375 1190.460938 242.453125 1190.230469 242.425781 C 1189.796875 242.371094 1189.402344 242.679688 1189.351562 243.109375 C 1189.296875 243.546875 1189.605469 243.941406 1190.042969 243.992188 C 1190.261719 244.023438 1212.601562 246.886719 1231.355469 261.125 C 1231.496094 261.238281 1231.660156 261.292969 1231.832031 261.292969 " fill-opacity="1" fill-rule="nonzero"/><path fill="#231f20" d="M 1221.5 263.070312 C 1221.730469 263.070312 1221.960938 262.972656 1222.113281 262.78125 C 1222.386719 262.445312 1222.34375 261.949219 1222.007812 261.667969 C 1208.816406 250.746094 1189.164062 244.824219 1188.96875 244.765625 C 1188.542969 244.636719 1188.105469 244.878906 1187.980469 245.300781 C 1187.855469 245.71875 1188.097656 246.160156 1188.511719 246.285156 C 1188.707031 246.339844 1208.054688 252.171875 1220.996094 262.890625 C 1221.140625 263.011719 1221.324219 263.070312 1221.5 263.070312 " fill-opacity="1" fill-rule="nonzero"/><path fill="#bdbcbc" d="M 1079.574219 336.507812 C 1090.558594 333.898438 1116.785156 331.09375 1130.140625 355.382812 C 1130.261719 355.609375 1130.386719 355.839844 1130.519531 356.050781 L 1130.535156 355.992188 C 1130.589844 356.113281 1130.640625 356.234375 1130.695312 356.351562 C 1130.796875 356.519531 1130.894531 356.6875 1130.996094 356.84375 L 1130.996094 356.980469 C 1138.191406 371.402344 1159.164062 370.046875 1159.164062 370.046875 C 1161.820312 359.9375 1176.308594 358.449219 1173.644531 368.609375 C 1172.660156 372.335938 1171.183594 377.933594 1171.183594 377.933594 C 1168.757812 385.425781 1164.648438 384.707031 1160.464844 383.980469 C 1158.714844 383.675781 1156.949219 383.375 1155.285156 383.675781 C 1148.203125 384.964844 1139.128906 385.632812 1133.914062 384.933594 C 1133.015625 384.8125 1129.203125 383.65625 1128.609375 383.078125 C 1128.609375 383.089844 1127.976562 382.792969 1127.171875 382.492188 C 1126.140625 382.109375 1124.835938 381.730469 1124.21875 381.980469 C 1092.632812 394.800781 1066.117188 387.554688 1062.894531 363.878906 C 1061.339844 352.523438 1069.570312 338.890625 1079.574219 336.507812 " fill-opacity="1" fill-rule="nonzero"/><path fill="#ffffff" d="M 1062.703125 361.03125 C 1062.703125 358.371094 1063.179688 355.648438 1064.035156 353.019531 C 1064.035156 353.023438 1064.039062 353.035156 1064.039062 353.039062 C 1063.183594 355.65625 1062.703125 358.375 1062.703125 361.03125 " fill-opacity="1" fill-rule="nonzero"/><path fill="#cdcccc" d="M 1154.941406 369.988281 C 1153.953125 369.921875 1152.832031 369.816406 1151.621094 369.644531 C 1152.757812 369.800781 1153.871094 369.910156 1154.941406 369.988281 M 1142.957031 367.40625 C 1138.253906 365.527344 1133.675781 362.339844 1130.996094 356.980469 L 1130.996094 356.84375 C 1130.894531 356.6875 1130.796875 356.519531 1130.695312 356.351562 C 1130.640625 356.234375 1130.589844 356.113281 1130.535156 355.992188 L 1130.519531 356.050781 C 1130.386719 355.839844 1130.261719 355.609375 1130.140625 355.382812 C 1121.015625 338.78125 1105.875 334.835938 1093.699219 334.835938 C 1088.058594 334.835938 1083.054688 335.683594 1079.574219 336.507812 C 1072.679688 338.148438 1066.625 345.136719 1064.039062 353.039062 C 1064.039062 353.035156 1064.035156 353.023438 1064.035156 353.019531 C 1066.625 345.117188 1072.679688 338.125 1079.574219 336.488281 C 1083.054688 335.660156 1088.058594 334.8125 1093.699219 334.8125 C 1105.875 334.8125 1121.015625 338.753906 1130.140625 355.359375 C 1130.261719 355.585938 1130.386719 355.808594 1130.519531 356.027344 L 1130.535156 355.972656 C 1130.589844 356.089844 1130.640625 356.207031 1130.695312 356.328125 C 1130.796875 356.492188 1130.894531 356.65625 1130.996094 356.820312 L 1130.996094 356.957031 C 1133.25 361.460938 1136.855469 364.484375 1140.949219 366.503906 C 1141.621094 366.835938 1142.285156 367.132812 1142.957031 367.40625 " fill-opacity="1" fill-rule="nonzero"/><path fill="#cdcccc" d="M 1145.710938 373.738281 C 1139.644531 373.738281 1132.835938 371.5625 1128.300781 363.796875 L 1128.300781 363.664062 C 1128.199219 363.5 1128.101562 363.335938 1127.996094 363.171875 C 1127.949219 363.050781 1127.890625 362.9375 1127.835938 362.816406 L 1127.820312 362.875 C 1127.695312 362.652344 1127.566406 362.433594 1127.441406 362.203125 C 1118.316406 345.601562 1105.355469 341.652344 1094.554688 341.652344 C 1089.558594 341.652344 1085.023438 342.496094 1081.542969 343.324219 C 1073.332031 345.273438 1064.332031 354.621094 1062.949219 364.269531 C 1062.925781 364.128906 1062.910156 363.988281 1062.894531 363.855469 C 1062.765625 362.925781 1062.703125 361.980469 1062.703125 361.03125 C 1062.703125 358.375 1063.183594 355.65625 1064.039062 353.039062 C 1066.625 345.136719 1072.679688 338.148438 1079.574219 336.507812 C 1083.054688 335.683594 1088.058594 334.835938 1093.699219 334.835938 C 1105.875 334.835938 1121.015625 338.78125 1130.140625 355.382812 C 1130.261719 355.609375 1130.386719 355.839844 1130.519531 356.050781 L 1130.535156 355.992188 C 1130.589844 356.113281 1130.640625 356.234375 1130.695312 356.351562 C 1130.796875 356.519531 1130.894531 356.6875 1130.996094 356.84375 L 1130.996094 356.980469 C 1133.675781 362.339844 1138.253906 365.527344 1142.957031 367.40625 C 1145.914062 368.609375 1148.847656 369.265625 1151.621094 369.644531 C 1152.832031 369.816406 1153.953125 369.921875 1154.941406 369.988281 C 1156.410156 370.09375 1157.804688 370.152344 1159.109375 370.195312 C 1159.941406 370.230469 1153.425781 373.738281 1145.710938 373.738281 " fill-opacity="1" fill-rule="nonzero"/><path fill="#231f20" d="M 1174.191406 364.339844 C 1173.453125 363.945312 1172.640625 363.855469 1171.839844 363.917969 C 1171.03125 363.992188 1170.226562 364.253906 1169.507812 364.71875 C 1168.777344 365.1875 1168.144531 365.867188 1167.734375 366.675781 C 1167.324219 367.480469 1167.128906 368.402344 1167.234375 369.292969 C 1167.757812 368.601562 1168.207031 368.003906 1168.714844 367.5 C 1169.210938 366.996094 1169.726562 366.578125 1170.289062 366.214844 C 1170.859375 365.851562 1171.464844 365.535156 1172.109375 365.242188 C 1172.757812 364.9375 1173.441406 364.664062 1174.191406 364.339844 " fill-opacity="1" fill-rule="nonzero"/><path fill="#231f20" d="M 1170.277344 361.941406 C 1169.648438 361.570312 1168.921875 361.449219 1168.195312 361.542969 C 1167.476562 361.644531 1166.746094 361.996094 1166.167969 362.550781 C 1165.597656 363.09375 1165.195312 363.824219 1164.976562 364.570312 C 1164.761719 365.320312 1164.703125 366.09375 1164.84375 366.871094 C 1165.335938 366.289062 1165.695312 365.707031 1166.066406 365.195312 C 1166.4375 364.683594 1166.800781 364.234375 1167.203125 363.855469 C 1167.597656 363.472656 1168.035156 363.144531 1168.542969 362.847656 C 1169.0625 362.546875 1169.625 362.289062 1170.277344 361.941406 " fill-opacity="1" fill-rule="nonzero"/><path fill="#231f20" d="M 1173.683594 369.636719 C 1173.054688 369.269531 1172.328125 369.152344 1171.609375 369.246094 C 1170.882812 369.34375 1170.15625 369.695312 1169.582031 370.25 C 1169 370.796875 1168.605469 371.523438 1168.386719 372.269531 C 1168.167969 373.023438 1168.109375 373.789062 1168.246094 374.570312 C 1168.738281 373.988281 1169.101562 373.40625 1169.480469 372.894531 C 1169.847656 372.382812 1170.214844 371.933594 1170.613281 371.550781 C 1171.003906 371.171875 1171.4375 370.84375 1171.953125 370.546875 C 1172.464844 370.242188 1173.027344 369.988281 1173.683594 369.636719 " fill-opacity="1" fill-rule="nonzero"/><g clip-path="url(#3cbab2d43f)"><g clip-path="url(#657fdf78cd)"><g clip-path="url(#058cb8b414)"><path fill="#c47032" d="M 1307.234375 89.261719 C 1306.074219 86.925781 1322.453125 71.175781 1339.917969 63.816406 C 1357.386719 56.460938 1368.4375 55.253906 1371.523438 61.085938 C 1374.605469 66.917969 1355.367188 76.894531 1344.878906 80.878906 C 1334.398438 84.863281 1308.863281 92.082031 1307.234375 89.261719 Z M 1302.9375 77.738281 C 1300.457031 75.882812 1306.097656 59.277344 1316.515625 45.746094 C 1326.9375 32.210938 1335.589844 32.386719 1340.296875 34.839844 C 1345.003906 37.292969 1339.132812 49.425781 1329.945312 59.238281 C 1320.761719 69.050781 1305.230469 78.949219 1302.9375 77.738281 Z M 1308.398438 96.488281 C 1309.355469 92.925781 1329.242188 92.539062 1341.335938 97.210938 C 1353.433594 101.886719 1359.605469 106.875 1358.863281 110.96875 C 1358.125 115.0625 1343.113281 112.824219 1335.285156 110.007812 C 1327.457031 107.199219 1308.800781 98.976562 1308.398438 96.488281 Z M 1308.398438 96.488281 " fill-opacity="1" fill-rule="evenodd"/></g></g></g><g fill="#fff8ef" fill-opacity="1"><g transform="translate(40.290425, 131.043838)"><g><path d="M 36.527344 -72.042969 C 20.292969 -72.042969 6.089844 -71.027344 6.089844 -71.027344 L 6.089844 0 L 32.46875 0 L 32.46875 -22.832031 C 32.46875 -22.832031 37.542969 -22.324219 41.601562 -22.324219 C 58.851562 -22.324219 69 -32.46875 69 -47.183594 C 69 -61.898438 58.851562 -72.042969 36.527344 -72.042969 Z M 32.46875 -41.601562 L 32.46875 -52.765625 L 36.527344 -52.765625 C 40.082031 -52.765625 42.617188 -50.226562 42.617188 -47.183594 C 42.617188 -44.140625 40.082031 -41.601562 36.527344 -41.601562 Z M 32.46875 -41.601562 "/></g></g></g><g fill="#fff8ef" fill-opacity="1"><g transform="translate(112.330663, 131.043838)"><g><path d="M 32.46875 -25.367188 L 58.851562 -25.367188 L 58.851562 -45.660156 L 32.46875 -45.660156 L 32.46875 -50.734375 L 60.882812 -50.734375 L 60.882812 -71.027344 L 6.089844 -71.027344 L 6.089844 0 L 62.910156 0 L 62.910156 -20.292969 L 32.46875 -20.292969 Z M 32.46875 -25.367188 "/></g></g></g><g fill="#fff8ef" fill-opacity="1"><g transform="translate(178.282995, 131.043838)"><g><path d="M 2.03125 -71.027344 L 2.03125 -47.691406 L 21.308594 -47.691406 L 21.308594 0 L 47.691406 0 L 47.691406 -47.691406 L 66.96875 -47.691406 L 66.96875 -71.027344 Z M 2.03125 -71.027344 "/></g></g></g><g fill="#fff8ef" fill-opacity="1"><g transform="translate(247.279267, 131.043838)"><g/></g></g><g fill="#fff8ef" fill-opacity="1"><g transform="translate(267.572289, 131.043838)"><g><path d="M 4.058594 -35.515625 C 4.058594 -14.714844 20.292969 1.523438 41.601562 1.523438 C 60.882812 1.523438 70.015625 -9.640625 70.015625 -9.640625 L 57.835938 -28.917969 C 57.835938 -28.917969 51.75 -23.339844 44.648438 -23.339844 C 37.542969 -23.339844 32.46875 -28.410156 32.46875 -35.515625 C 32.46875 -42.617188 37.542969 -47.691406 44.648438 -47.691406 C 51.75 -47.691406 57.835938 -42.109375 57.835938 -42.109375 L 70.015625 -61.390625 C 70.015625 -61.390625 60.882812 -72.550781 41.601562 -72.550781 C 20.292969 -72.550781 4.058594 -56.316406 4.058594 -35.515625 Z M 4.058594 -35.515625 "/></g></g></g><g fill="#fff8ef" fill-opacity="1"><g transform="translate(339.612526, 131.043838)"><g><path d="M 56.316406 -71.027344 L 21.816406 -71.027344 L 1.015625 0 L 30.441406 0 L 32.46875 -10.148438 L 45.660156 -10.148438 L 47.691406 0 L 77.117188 0 C 77.117188 0 56.417969 -70.621094 56.316406 -71.027344 Z M 35.515625 -26.382812 L 39.066406 -44.648438 L 42.617188 -26.382812 Z M 35.515625 -26.382812 "/></g></g></g><g fill="#fff8ef" fill-opacity="1"><g transform="translate(417.740671, 131.043838)"><g><path d="M 76.101562 0 L 58.851562 -27.398438 C 58.851562 -27.398438 67.984375 -32.46875 67.984375 -47.183594 C 67.984375 -61.898438 57.835938 -72.042969 35.515625 -72.042969 C 20.292969 -72.042969 6.089844 -71.027344 6.089844 -71.027344 L 6.089844 0 L 32.46875 0 L 32.46875 -23.339844 L 33.484375 -23.339844 L 45.660156 0 Z M 32.46875 -41.601562 L 32.46875 -52.765625 L 35.515625 -52.765625 C 39.066406 -52.765625 41.601562 -50.226562 41.601562 -47.183594 C 41.601562 -44.140625 39.066406 -41.601562 35.515625 -41.601562 Z M 32.46875 -41.601562 "/></g></g></g><g fill="#fff8ef" fill-opacity="1"><g transform="translate(491.81021, 131.043838)"><g><path d="M 32.46875 -25.367188 L 58.851562 -25.367188 L 58.851562 -45.660156 L 32.46875 -45.660156 L 32.46875 -50.734375 L 60.882812 -50.734375 L 60.882812 -71.027344 L 6.089844 -71.027344 L 6.089844 0 L 62.910156 0 L 62.910156 -20.292969 L 32.46875 -20.292969 Z M 32.46875 -25.367188 "/></g></g></g><g fill="#fff8ef" fill-opacity="1"><g transform="translate(557.762543, 131.043838)"><g/></g></g><g fill="#fff8ef" fill-opacity="1"><g transform="translate(578.055564, 131.043838)"><g><path d="M 54.792969 -35.515625 C 54.792969 -28.410156 49.71875 -23.339844 43.632812 -23.339844 C 37.542969 -23.339844 32.46875 -28.410156 32.46875 -35.515625 C 32.46875 -42.617188 37.542969 -47.691406 43.632812 -47.691406 C 49.71875 -47.691406 54.792969 -42.617188 54.792969 -35.515625 Z M 83.207031 -35.515625 C 83.207031 -56.316406 66.96875 -72.550781 43.632812 -72.550781 C 20.292969 -72.550781 4.058594 -56.316406 4.058594 -35.515625 C 4.058594 -14.714844 20.292969 1.523438 43.632812 1.523438 C 66.96875 1.523438 83.207031 -14.714844 83.207031 -35.515625 Z M 83.207031 -35.515625 "/></g></g></g><g fill="#fff8ef" fill-opacity="1"><g transform="translate(665.31558, 131.043838)"><g><path d="M 6.089844 -71.027344 L 6.089844 0 L 32.46875 0 L 32.46875 -20.292969 L 53.777344 -20.292969 L 53.777344 -40.589844 L 32.46875 -40.589844 L 32.46875 -48.707031 L 58.851562 -48.707031 L 58.851562 -71.027344 Z M 6.089844 -71.027344 "/></g></g></g><g fill="#fff8ef" fill-opacity="1"><g transform="translate(726.194645, 131.043838)"><g><path d="M 6.089844 -71.027344 L 6.089844 0 L 32.46875 0 L 32.46875 -20.292969 L 53.777344 -20.292969 L 53.777344 -40.589844 L 32.46875 -40.589844 L 32.46875 -48.707031 L 58.851562 -48.707031 L 58.851562 -71.027344 Z M 6.089844 -71.027344 "/></g></g></g><g fill="#fff8ef" fill-opacity="1"><g transform="translate(787.07371, 131.043838)"><g><path d="M 32.46875 -25.367188 L 58.851562 -25.367188 L 58.851562 -45.660156 L 32.46875 -45.660156 L 32.46875 -50.734375 L 60.882812 -50.734375 L 60.882812 -71.027344 L 6.089844 -71.027344 L 6.089844 0 L 62.910156 0 L 62.910156 -20.292969 L 32.46875 -20.292969 Z M 32.46875 -25.367188 "/></g></g></g><g fill="#fff8ef" fill-opacity="1"><g transform="translate(853.026042, 131.043838)"><g><path d="M 76.101562 0 L 58.851562 -27.398438 C 58.851562 -27.398438 67.984375 -32.46875 67.984375 -47.183594 C 67.984375 -61.898438 57.835938 -72.042969 35.515625 -72.042969 C 20.292969 -72.042969 6.089844 -71.027344 6.089844 -71.027344 L 6.089844 0 L 32.46875 0 L 32.46875 -23.339844 L 33.484375 -23.339844 L 45.660156 0 Z M 32.46875 -41.601562 L 32.46875 -52.765625 L 35.515625 -52.765625 C 39.066406 -52.765625 41.601562 -50.226562 41.601562 -47.183594 C 41.601562 -44.140625 39.066406 -41.601562 35.515625 -41.601562 Z M 32.46875 -41.601562 "/></g></g></g><g fill="#c47032" fill-opacity="1"><g transform="translate(42.732677, 243.231603)"><g><path d="M 20.269531 -13.300781 L 20.269531 -31.035156 L 22.800781 -31.035156 C 27.550781 -31.035156 30.402344 -28.1875 30.402344 -22.167969 C 30.402344 -16.152344 27.550781 -13.300781 22.800781 -13.300781 Z M 48.136719 -22.167969 C 48.136719 -35.785156 39.648438 -44.96875 22.800781 -44.96875 C 12.667969 -44.96875 3.800781 -44.335938 3.800781 -44.335938 L 3.800781 0 C 3.800781 0 12.667969 0.632812 22.800781 0.632812 C 39.648438 0.632812 48.136719 -8.550781 48.136719 -22.167969 Z M 48.136719 -22.167969 "/></g></g><g transform="translate(93.403346, 243.231603)"><g><path d="M 3.167969 -33.570312 L 3.167969 0 L 18.367188 0 L 18.367188 -33.570312 Z M 3.167969 -37.371094 L 18.367188 -37.371094 L 18.367188 -49.402344 L 3.167969 -49.402344 Z M 3.167969 -37.371094 "/></g></g></g><g fill="#c47032" fill-opacity="1"><g transform="translate(114.938368, 243.231603)"><g><path d="M 31.351562 -10.132812 C 31.351562 -20.269531 19 -20.902344 19 -22.800781 C 19 -23.433594 19.636719 -24.070312 20.585938 -24.070312 C 24.070312 -24.070312 26.601562 -21.535156 26.601562 -21.535156 L 31.351562 -29.136719 C 31.351562 -29.136719 25.96875 -34.519531 17.417969 -34.519531 C 7.601562 -34.519531 2.535156 -29.453125 2.535156 -23.433594 C 2.535156 -13.300781 14.882812 -12.667969 14.882812 -10.765625 C 14.882812 -10.132812 14.25 -9.5 13.300781 -9.5 C 8.550781 -9.5 5.382812 -12.667969 5.382812 -12.667969 L 0.632812 -5.066406 C 0.632812 -5.066406 6.015625 0.949219 16.46875 0.949219 C 26.285156 0.949219 31.351562 -4.117188 31.351562 -10.132812 Z M 31.351562 -10.132812 "/></g></g></g><g fill="#c47032" fill-opacity="1"><g transform="translate(147.557601, 243.231603)"><g><path d="M 17.734375 -16.785156 C 17.734375 -19.636719 19.636719 -21.535156 22.800781 -21.535156 C 25.96875 -21.535156 28.503906 -19 28.503906 -19 L 34.835938 -29.136719 C 34.835938 -29.136719 29.769531 -34.519531 20.585938 -34.519531 C 9.816406 -34.519531 1.898438 -26.601562 1.898438 -16.785156 C 1.898438 -6.96875 9.816406 0.949219 20.585938 0.949219 C 29.769531 0.949219 34.835938 -4.433594 34.835938 -4.433594 L 28.503906 -14.566406 C 28.503906 -14.566406 25.96875 -12.035156 22.800781 -12.035156 C 19.636719 -12.035156 17.734375 -13.933594 17.734375 -16.785156 Z M 17.734375 -16.785156 "/></g></g></g><g fill="#c47032" fill-opacity="1"><g transform="translate(183.027054, 243.231603)"><g><path d="M 1.898438 -16.785156 C 1.898438 -6.96875 9.816406 0.949219 21.21875 0.949219 C 32.621094 0.949219 40.535156 -6.96875 40.535156 -16.785156 C 40.535156 -26.601562 32.621094 -34.519531 21.21875 -34.519531 C 9.816406 -34.519531 1.898438 -26.601562 1.898438 -16.785156 Z M 25.335938 -16.785156 C 25.335938 -13.933594 23.433594 -12.035156 21.21875 -12.035156 C 19 -12.035156 17.101562 -13.933594 17.101562 -16.785156 C 17.101562 -19.636719 19 -21.535156 21.21875 -21.535156 C 23.433594 -21.535156 25.335938 -19.636719 25.335938 -16.785156 Z M 25.335938 -16.785156 "/></g></g></g><g fill="#c47032" fill-opacity="1"><g transform="translate(225.463733, 243.231603)"><g><path d="M 14.566406 0.949219 C 20.269531 0.949219 22.800781 -3.800781 22.800781 -3.800781 L 24.070312 0 L 38.636719 0 L 38.636719 -33.570312 L 23.433594 -33.570312 L 23.433594 -15.835938 C 23.433594 -13.300781 22.167969 -12.035156 20.902344 -12.035156 C 19.636719 -12.035156 18.367188 -13.300781 18.367188 -15.835938 L 18.367188 -33.570312 L 3.167969 -33.570312 L 3.167969 -15.835938 C 3.167969 -4.117188 8.234375 0.949219 14.566406 0.949219 Z M 14.566406 0.949219 "/></g></g></g><g fill="#c47032" fill-opacity="1"><g transform="translate(267.267019, 243.231603)"><g><path d="M 27.234375 -34.519531 C 21.535156 -34.519531 19 -29.769531 19 -29.769531 L 17.734375 -33.570312 L 3.167969 -33.570312 L 3.167969 0 L 18.367188 0 L 18.367188 -17.734375 C 18.367188 -20.269531 19.636719 -21.535156 20.902344 -21.535156 C 22.167969 -21.535156 23.433594 -20.269531 23.433594 -17.734375 L 23.433594 0 L 38.636719 0 L 38.636719 -17.734375 C 38.636719 -29.453125 33.570312 -34.519531 27.234375 -34.519531 Z M 27.234375 -34.519531 "/></g></g></g><g fill="#c47032" fill-opacity="1"><g transform="translate(308.436936, 243.231603)"><g><path d="M 5.699219 -20.902344 L 5.699219 -15.519531 C 5.699219 -4.433594 11.402344 1.265625 20.902344 1.265625 C 24.070312 1.265625 26.601562 0.632812 26.601562 0.632812 L 26.601562 -12.035156 C 26.601562 -12.035156 25.335938 -11.71875 24.070312 -11.71875 C 22.167969 -11.71875 20.902344 -12.984375 20.902344 -15.519531 L 20.902344 -20.902344 L 26.601562 -20.902344 L 26.601562 -33.570312 L 20.902344 -33.570312 L 20.902344 -44.335938 L 5.699219 -44.335938 L 5.699219 -33.570312 L 1.265625 -33.570312 L 1.265625 -20.902344 Z M 5.699219 -20.902344 "/></g></g></g><g fill="#c47032" fill-opacity="1"><g transform="translate(338.205948, 243.231603)"><g/></g><g transform="translate(350.873615, 243.231603)"><g><path d="M 25.335938 -14.882812 C 22.484375 -14.882812 20.269531 -17.101562 20.269531 -20.585938 L 20.269531 -44.335938 L 3.800781 -44.335938 L 3.800781 -20.585938 C 3.800781 -7.917969 12.667969 0.949219 25.335938 0.949219 C 38.003906 0.949219 46.871094 -7.917969 46.871094 -20.585938 L 46.871094 -44.335938 L 30.402344 -44.335938 L 30.402344 -20.585938 C 30.402344 -17.101562 28.1875 -14.882812 25.335938 -14.882812 Z M 25.335938 -14.882812 "/></g></g><g transform="translate(401.544285, 243.231603)"><g><path d="M 40.535156 -16.785156 C 40.535156 -28.1875 34.203125 -34.519531 27.234375 -34.519531 C 20.902344 -34.519531 18.367188 -29.769531 18.367188 -29.769531 C 18.367188 -29.769531 18.367188 -29.769531 17.101562 -33.570312 L 3.167969 -33.570312 L 3.167969 15.835938 L 18.367188 15.835938 L 18.367188 -3.800781 C 18.367188 -3.800781 20.902344 0.949219 27.234375 0.949219 C 34.203125 0.949219 40.535156 -5.382812 40.535156 -16.785156 Z M 24.703125 -16.785156 C 24.703125 -13.617188 23.117188 -12.035156 21.21875 -12.035156 C 19.316406 -12.035156 17.734375 -13.617188 17.734375 -16.785156 C 17.734375 -19.953125 19.316406 -21.535156 21.21875 -21.535156 C 23.117188 -21.535156 24.703125 -19.953125 24.703125 -16.785156 Z M 24.703125 -16.785156 "/></g></g></g><g fill="#c47032" fill-opacity="1"><g transform="translate(443.980984, 243.231603)"><g/></g><g transform="translate(456.648651, 243.231603)"><g><path d="M 1.265625 -44.335938 L 1.265625 -29.769531 L 13.300781 -29.769531 L 13.300781 0 L 29.769531 0 L 29.769531 -29.769531 L 41.804688 -29.769531 L 41.804688 -44.335938 Z M 1.265625 -44.335938 "/></g></g></g><g fill="#c47032" fill-opacity="1"><g transform="translate(499.718699, 243.231603)"><g><path d="M 1.898438 -16.785156 C 1.898438 -6.96875 9.816406 0.949219 21.21875 0.949219 C 32.621094 0.949219 40.535156 -6.96875 40.535156 -16.785156 C 40.535156 -26.601562 32.621094 -34.519531 21.21875 -34.519531 C 9.816406 -34.519531 1.898438 -26.601562 1.898438 -16.785156 Z M 25.335938 -16.785156 C 25.335938 -13.933594 23.433594 -12.035156 21.21875 -12.035156 C 19 -12.035156 17.101562 -13.933594 17.101562 -16.785156 C 17.101562 -19.636719 19 -21.535156 21.21875 -21.535156 C 23.433594 -21.535156 25.335938 -19.636719 25.335938 -16.785156 Z M 25.335938 -16.785156 "/></g></g></g><g fill="#c47032" fill-opacity="1"><g transform="translate(542.155401, 243.231603)"><g/></g><g transform="translate(554.823068, 243.231603)"><g><path d="M 21.851562 -35.46875 C 23.433594 -35.46875 24.703125 -34.203125 24.703125 -31.984375 C 24.703125 -29.769531 23.433594 -28.503906 21.851562 -28.503906 C 20.269531 -28.503906 19 -29.769531 19 -31.984375 C 19 -34.203125 20.269531 -35.46875 21.851562 -35.46875 Z M 21.851562 -17.734375 C 23.75 -17.734375 25.335938 -16.152344 25.335938 -13.933594 C 25.335938 -11.71875 23.75 -10.132812 21.851562 -10.132812 C 19.953125 -10.132812 18.367188 -11.71875 18.367188 -13.933594 C 18.367188 -16.152344 19.953125 -17.734375 21.851562 -17.734375 Z M 21.851562 -45.285156 C 10.765625 -45.285156 4.433594 -38.953125 4.433594 -32.621094 C 4.433594 -25.652344 10.765625 -23.433594 10.765625 -23.433594 L 10.765625 -23.117188 C 10.765625 -23.117188 1.898438 -20.902344 1.898438 -12.035156 C 1.898438 -5.382812 8.234375 0.949219 21.851562 0.949219 C 35.46875 0.949219 41.804688 -5.382812 41.804688 -12.035156 C 41.804688 -20.902344 32.9375 -23.117188 32.9375 -23.117188 L 32.9375 -23.433594 C 32.9375 -23.433594 39.269531 -25.652344 39.269531 -32.621094 C 39.269531 -38.953125 32.9375 -45.285156 21.851562 -45.285156 Z M 21.851562 -45.285156 "/></g></g></g><g fill="#c47032" fill-opacity="1"><g transform="translate(598.526509, 243.231603)"><g><path d="M 24.070312 -31.035156 C 26.601562 -31.035156 29.136719 -28.503906 29.136719 -22.167969 C 29.136719 -15.835938 26.601562 -13.300781 24.070312 -13.300781 C 21.535156 -13.300781 19 -15.835938 19 -22.167969 C 19 -28.503906 21.535156 -31.035156 24.070312 -31.035156 Z M 24.070312 0.949219 C 36.101562 0.949219 45.605469 -8.550781 45.605469 -22.167969 C 45.605469 -35.785156 36.101562 -45.285156 24.070312 -45.285156 C 12.035156 -45.285156 2.535156 -35.785156 2.535156 -22.167969 C 2.535156 -8.550781 12.035156 0.949219 24.070312 0.949219 Z M 24.070312 0.949219 "/></g></g></g><g fill="#c47032" fill-opacity="1"><g transform="translate(646.663651, 243.231603)"><g><path d="M 16.46875 0 L 46.238281 -44.335938 L 33.570312 -44.335938 L 3.800781 0 Z M 11.402344 -38.003906 C 12.667969 -38.003906 13.933594 -36.734375 13.933594 -34.835938 C 13.933594 -32.9375 12.667969 -31.667969 11.402344 -31.667969 C 10.132812 -31.667969 8.867188 -32.9375 8.867188 -34.835938 C 8.867188 -36.734375 10.132812 -38.003906 11.402344 -38.003906 Z M 11.402344 -24.703125 C 17.101562 -24.703125 21.535156 -29.136719 21.535156 -34.835938 C 21.535156 -40.535156 17.101562 -44.96875 11.402344 -44.96875 C 5.699219 -44.96875 1.265625 -40.535156 1.265625 -34.835938 C 1.265625 -29.136719 5.699219 -24.703125 11.402344 -24.703125 Z M 38.636719 -12.667969 C 39.902344 -12.667969 41.167969 -11.402344 41.167969 -9.5 C 41.167969 -7.601562 39.902344 -6.332031 38.636719 -6.332031 C 37.371094 -6.332031 36.101562 -7.601562 36.101562 -9.5 C 36.101562 -11.402344 37.371094 -12.667969 38.636719 -12.667969 Z M 38.636719 0.632812 C 44.335938 0.632812 48.769531 -3.800781 48.769531 -9.5 C 48.769531 -15.203125 44.335938 -19.636719 38.636719 -19.636719 C 32.9375 -19.636719 28.503906 -15.203125 28.503906 -9.5 C 28.503906 -3.800781 32.9375 0.632812 38.636719 0.632812 Z M 38.636719 0.632812 "/></g></g></g><g fill="#c47032" fill-opacity="1"><g transform="translate(696.700926, 243.231603)"><g/></g><g transform="translate(709.368593, 243.231603)"><g><path d="M 34.203125 -22.167969 C 34.203125 -17.734375 31.035156 -14.566406 27.234375 -14.566406 C 23.433594 -14.566406 20.269531 -17.734375 20.269531 -22.167969 C 20.269531 -26.601562 23.433594 -29.769531 27.234375 -29.769531 C 31.035156 -29.769531 34.203125 -26.601562 34.203125 -22.167969 Z M 51.9375 -22.167969 C 51.9375 -35.152344 41.804688 -45.285156 27.234375 -45.285156 C 12.667969 -45.285156 2.535156 -35.152344 2.535156 -22.167969 C 2.535156 -9.183594 12.667969 0.949219 27.234375 0.949219 C 41.804688 0.949219 51.9375 -9.183594 51.9375 -22.167969 Z M 51.9375 -22.167969 "/></g></g></g><g fill="#c47032" fill-opacity="1"><g transform="translate(763.839569, 243.231603)"><g><path d="M 1.265625 -31.667969 L 1.265625 -19 L 5.699219 -19 L 5.699219 0 L 20.902344 0 L 20.902344 -19 L 26.601562 -19 L 26.601562 -31.667969 L 20.902344 -31.667969 L 20.902344 -32.621094 C 20.902344 -35.152344 22.167969 -36.417969 24.070312 -36.417969 C 25.335938 -36.417969 26.601562 -36.101562 26.601562 -36.101562 L 26.601562 -48.769531 C 26.601562 -48.769531 24.070312 -49.402344 20.902344 -49.402344 C 11.402344 -49.402344 5.699219 -43.703125 5.699219 -32.621094 L 5.699219 -31.667969 Z M 1.265625 -31.667969 "/></g></g><g transform="translate(792.34182, 243.231603)"><g><path d="M 1.265625 -31.667969 L 1.265625 -19 L 5.699219 -19 L 5.699219 0 L 20.902344 0 L 20.902344 -19 L 26.601562 -19 L 26.601562 -31.667969 L 20.902344 -31.667969 L 20.902344 -32.621094 C 20.902344 -35.152344 22.167969 -36.417969 24.070312 -36.417969 C 25.335938 -36.417969 26.601562 -36.101562 26.601562 -36.101562 L 26.601562 -48.769531 C 26.601562 -48.769531 24.070312 -49.402344 20.902344 -49.402344 C 11.402344 -49.402344 5.699219 -43.703125 5.699219 -32.621094 L 5.699219 -31.667969 Z M 1.265625 -31.667969 "/></g></g></g></svg>